G04 #@! TF.FileFunction,Copper,L4,Bot,Signal*
%FSLAX46Y46*%
G04 Gerber Fmt 4.6, Leading zero omitted, Abs format (unit mm)*
G04 Created by KiCad (PCBNEW 4.0.5) date 05/13/17 18:28:42*
%MOMM*%
%LPD*%
G01*
G04 APERTURE LIST*
%ADD10C,0.100000*%
%ADD11R,1.000000X1.000000*%
%ADD12O,1.000000X1.000000*%
%ADD13R,5.100000X2.500000*%
%ADD14C,5.000000*%
%ADD15R,1.700000X0.900000*%
%ADD16C,1.524000*%
%ADD17R,2.000000X1.500000*%
%ADD18C,0.685800*%
%ADD19C,0.152400*%
%ADD20C,0.300000*%
%ADD21C,0.254000*%
G04 APERTURE END LIST*
D10*
D11*
X123825000Y-86741000D03*
D12*
X123825000Y-85471000D03*
X123825000Y-84201000D03*
X123825000Y-82931000D03*
X123825000Y-81661000D03*
D13*
X114109500Y-80728500D03*
X114109500Y-57828500D03*
D14*
X114109500Y-69278500D03*
D15*
X102616000Y-59768000D03*
X102616000Y-63168000D03*
D16*
X129254000Y-80010000D03*
D17*
X126454000Y-81410000D03*
X126454000Y-78610000D03*
D16*
X129254000Y-71501000D03*
D17*
X126454000Y-72901000D03*
X126454000Y-70101000D03*
D16*
X129254000Y-63119000D03*
D17*
X126454000Y-64519000D03*
X126454000Y-61719000D03*
D18*
X114681000Y-80708500D03*
X115951000Y-57467500D03*
X107188000Y-59753500D03*
X127127000Y-66929000D03*
X120269000Y-76708000D03*
X104648000Y-76454000D03*
X110426500Y-76771500D03*
X113220500Y-72580500D03*
X117538500Y-80772000D03*
X111442500Y-63182500D03*
X115633500Y-64135000D03*
X120586500Y-64135000D03*
X126238000Y-75184000D03*
X103822500Y-70929500D03*
X119634000Y-58483500D03*
X106489500Y-83693000D03*
X122999500Y-77216000D03*
X121856500Y-80137000D03*
X111315500Y-72644000D03*
X115125500Y-84709000D03*
X101917500Y-74612500D03*
X101981000Y-70802500D03*
X103124000Y-69659500D03*
X109093000Y-73469500D03*
X103251000Y-68516500D03*
X108013500Y-71628000D03*
X117475000Y-83439000D03*
X116522500Y-72580500D03*
X115633500Y-72580500D03*
X110934500Y-80772000D03*
X112712500Y-84518500D03*
X110744000Y-70739000D03*
X106553000Y-74295000D03*
X107823000Y-83566000D03*
X108013500Y-82677000D03*
X109029500Y-75184000D03*
X107886500Y-68643500D03*
X107950000Y-69596000D03*
X107886500Y-81534000D03*
X116205000Y-84772500D03*
X112268000Y-72644000D03*
X123317000Y-79248000D03*
X121031000Y-81280000D03*
X102743000Y-60960000D03*
X108521500Y-59372500D03*
X107823000Y-66675000D03*
X108458000Y-58039000D03*
X108013500Y-67691000D03*
X117030500Y-59690000D03*
X111061500Y-57531000D03*
X117221000Y-60896500D03*
X120586500Y-79819500D03*
X112141000Y-78041500D03*
X126111000Y-63119000D03*
X111760000Y-66738500D03*
X110871000Y-67437000D03*
X128397000Y-73152000D03*
X128143000Y-81153000D03*
X110807500Y-69850000D03*
X110363000Y-63881000D03*
X107251500Y-61023500D03*
X119951500Y-67691000D03*
X124714000Y-65532000D03*
D19*
X114300000Y-57594500D02*
X114427000Y-57467500D01*
D20*
X113220500Y-72580500D02*
X114554000Y-71247000D01*
X114554000Y-71247000D02*
X114554000Y-71120000D01*
X126238000Y-75184000D02*
X126238000Y-75247500D01*
D19*
X125857000Y-69723000D02*
X126443000Y-70309000D01*
X126443000Y-70309000D02*
X127196000Y-70309000D01*
D20*
X101917500Y-70866000D02*
X101917500Y-74612500D01*
X101981000Y-70802500D02*
X101917500Y-70866000D01*
X110553500Y-81153000D02*
X110934500Y-80772000D01*
X110553500Y-83820000D02*
X110553500Y-81153000D01*
X111379000Y-84645500D02*
X110553500Y-83820000D01*
X112585500Y-84645500D02*
X111379000Y-84645500D01*
X112712500Y-84518500D02*
X112585500Y-84645500D01*
X102616000Y-59768000D02*
X102616000Y-60833000D01*
X102616000Y-60833000D02*
X102743000Y-60960000D01*
X126454000Y-63462000D02*
X126454000Y-64519000D01*
X126111000Y-63119000D02*
X126454000Y-63462000D01*
X128146000Y-72901000D02*
X126454000Y-72901000D01*
X128146000Y-72901000D02*
X128397000Y-73152000D01*
X126454000Y-81410000D02*
X127886000Y-81410000D01*
X127886000Y-81410000D02*
X128143000Y-81153000D01*
D21*
G36*
X125834796Y-55556318D02*
X125570101Y-56193773D01*
X125569499Y-56883999D01*
X125833081Y-57521915D01*
X126320718Y-58010404D01*
X126958173Y-58275099D01*
X127648399Y-58275701D01*
X128286315Y-58012119D01*
X128574693Y-57724244D01*
X128574340Y-61888273D01*
X128463697Y-61933990D01*
X128089000Y-62308033D01*
X128089000Y-62004750D01*
X127930250Y-61846000D01*
X126581000Y-61846000D01*
X126581000Y-61866000D01*
X126327000Y-61866000D01*
X126327000Y-61846000D01*
X124977750Y-61846000D01*
X124819000Y-62004750D01*
X124819000Y-62595309D01*
X124915673Y-62828698D01*
X125094301Y-63007327D01*
X125133183Y-63023432D01*
X125133011Y-63220966D01*
X125002559Y-63304910D01*
X124857569Y-63517110D01*
X124806560Y-63769000D01*
X124806560Y-64554180D01*
X124520337Y-64553931D01*
X124160788Y-64702493D01*
X123885460Y-64977341D01*
X123736270Y-65336630D01*
X123735931Y-65725663D01*
X123884493Y-66085212D01*
X124159341Y-66360540D01*
X124518630Y-66509730D01*
X124907663Y-66510069D01*
X125267212Y-66361507D01*
X125542540Y-66086659D01*
X125613221Y-65916440D01*
X127454000Y-65916440D01*
X127689317Y-65872162D01*
X127905441Y-65733090D01*
X128050431Y-65520890D01*
X128101440Y-65269000D01*
X128101440Y-63941810D01*
X128461630Y-64302629D01*
X128574132Y-64349344D01*
X128573630Y-70270567D01*
X128463697Y-70315990D01*
X128089000Y-70690033D01*
X128089000Y-70386750D01*
X127930250Y-70228000D01*
X126581000Y-70228000D01*
X126581000Y-71327250D01*
X126739750Y-71486000D01*
X127580310Y-71486000D01*
X127813699Y-71389327D01*
X127857135Y-71345891D01*
X127856863Y-71657724D01*
X127705890Y-71554569D01*
X127454000Y-71503560D01*
X125454000Y-71503560D01*
X125218683Y-71547838D01*
X125002559Y-71686910D01*
X124857569Y-71899110D01*
X124806560Y-72151000D01*
X124806560Y-73651000D01*
X124850838Y-73886317D01*
X124989910Y-74102441D01*
X125202110Y-74247431D01*
X125454000Y-74298440D01*
X127454000Y-74298440D01*
X127689317Y-74254162D01*
X127905441Y-74115090D01*
X127963110Y-74030688D01*
X128201630Y-74129730D01*
X128573303Y-74130054D01*
X128572909Y-78779865D01*
X128463697Y-78824990D01*
X128089000Y-79199033D01*
X128089000Y-78895750D01*
X127930250Y-78737000D01*
X126581000Y-78737000D01*
X126581000Y-79836250D01*
X126739750Y-79995000D01*
X127580310Y-79995000D01*
X127813699Y-79898327D01*
X127857135Y-79854891D01*
X127856863Y-80166724D01*
X127705890Y-80063569D01*
X127454000Y-80012560D01*
X125454000Y-80012560D01*
X125218683Y-80056838D01*
X125002559Y-80195910D01*
X124857569Y-80408110D01*
X124806560Y-80660000D01*
X124806560Y-81094347D01*
X124522604Y-80765677D01*
X124126877Y-80566868D01*
X123952000Y-80691865D01*
X123952000Y-81534000D01*
X123972000Y-81534000D01*
X123972000Y-81788000D01*
X123952000Y-81788000D01*
X123952000Y-81808000D01*
X123907564Y-81808000D01*
X123847236Y-81796000D01*
X123802764Y-81796000D01*
X123742436Y-81808000D01*
X123698000Y-81808000D01*
X123698000Y-81788000D01*
X122857046Y-81788000D01*
X122730881Y-81962874D01*
X122837873Y-82221209D01*
X122894451Y-82286696D01*
X122754161Y-82496654D01*
X122667764Y-82931000D01*
X122754161Y-83365346D01*
X122888234Y-83566000D01*
X122754161Y-83766654D01*
X122667764Y-84201000D01*
X122754161Y-84635346D01*
X122888234Y-84836000D01*
X122754161Y-85036654D01*
X122667764Y-85471000D01*
X122754161Y-85905346D01*
X122769805Y-85928759D01*
X122728569Y-85989110D01*
X122677560Y-86241000D01*
X122677560Y-87241000D01*
X122721838Y-87476317D01*
X122860910Y-87692441D01*
X122918221Y-87731600D01*
X120332494Y-87731600D01*
X119653568Y-87080167D01*
X119534774Y-87004294D01*
X119417605Y-86926004D01*
X119409749Y-86924441D01*
X119402997Y-86920129D01*
X119264230Y-86895496D01*
X119126000Y-86868000D01*
X111912400Y-86868000D01*
X111894033Y-86871654D01*
X111874517Y-86868103D01*
X111583902Y-86930875D01*
X111339430Y-87100084D01*
X110728274Y-87731600D01*
X104561498Y-87731600D01*
X104898804Y-87394882D01*
X105163499Y-86757427D01*
X105164101Y-86067201D01*
X104900519Y-85429285D01*
X104412882Y-84940796D01*
X103775427Y-84676101D01*
X103085201Y-84675499D01*
X102447285Y-84939081D01*
X102108000Y-85277774D01*
X102108000Y-83759663D01*
X106844931Y-83759663D01*
X106993493Y-84119212D01*
X107268341Y-84394540D01*
X107627630Y-84543730D01*
X108016663Y-84544069D01*
X108376212Y-84395507D01*
X108651540Y-84120659D01*
X108800730Y-83761370D01*
X108801069Y-83372337D01*
X108771881Y-83301696D01*
X108842040Y-83231659D01*
X108991230Y-82872370D01*
X108991569Y-82483337D01*
X108843007Y-82123788D01*
X108742331Y-82022936D01*
X108864230Y-81729370D01*
X108864569Y-81340337D01*
X108787164Y-81153000D01*
X109768500Y-81153000D01*
X109768500Y-83820000D01*
X109828255Y-84120407D01*
X109998421Y-84375079D01*
X110823921Y-85200579D01*
X111078593Y-85370745D01*
X111379000Y-85430500D01*
X112358835Y-85430500D01*
X112517130Y-85496230D01*
X112906163Y-85496569D01*
X113265712Y-85348007D01*
X113541040Y-85073159D01*
X113611836Y-84902663D01*
X114147431Y-84902663D01*
X114295993Y-85262212D01*
X114570841Y-85537540D01*
X114930130Y-85686730D01*
X115319163Y-85687069D01*
X115614431Y-85565067D01*
X115650341Y-85601040D01*
X116009630Y-85750230D01*
X116398663Y-85750569D01*
X116758212Y-85602007D01*
X117033540Y-85327159D01*
X117182730Y-84967870D01*
X117183069Y-84578837D01*
X117082218Y-84334757D01*
X117279630Y-84416730D01*
X117668663Y-84417069D01*
X118028212Y-84268507D01*
X118303540Y-83993659D01*
X118452730Y-83634370D01*
X118453069Y-83245337D01*
X118304507Y-82885788D01*
X118029659Y-82610460D01*
X117670370Y-82461270D01*
X117281337Y-82460931D01*
X116921788Y-82609493D01*
X116646460Y-82884341D01*
X116497270Y-83243630D01*
X116496931Y-83632663D01*
X116597782Y-83876743D01*
X116400370Y-83794770D01*
X116011337Y-83794431D01*
X115716069Y-83916433D01*
X115680159Y-83880460D01*
X115320870Y-83731270D01*
X114931837Y-83730931D01*
X114572288Y-83879493D01*
X114296960Y-84154341D01*
X114147770Y-84513630D01*
X114147431Y-84902663D01*
X113611836Y-84902663D01*
X113690230Y-84713870D01*
X113690569Y-84324837D01*
X113542007Y-83965288D01*
X113267159Y-83689960D01*
X112907870Y-83540770D01*
X112518837Y-83540431D01*
X112159288Y-83688993D01*
X111987481Y-83860500D01*
X111704158Y-83860500D01*
X111338500Y-83494842D01*
X111338500Y-82581186D01*
X111559500Y-82625940D01*
X116659500Y-82625940D01*
X116894817Y-82581662D01*
X117110941Y-82442590D01*
X117255931Y-82230390D01*
X117306940Y-81978500D01*
X117306940Y-80013163D01*
X119608431Y-80013163D01*
X119756993Y-80372712D01*
X120031841Y-80648040D01*
X120207026Y-80720783D01*
X120202460Y-80725341D01*
X120053270Y-81084630D01*
X120052931Y-81473663D01*
X120201493Y-81833212D01*
X120476341Y-82108540D01*
X120835630Y-82257730D01*
X121224663Y-82258069D01*
X121584212Y-82109507D01*
X121859540Y-81834659D01*
X122008730Y-81475370D01*
X122008831Y-81359126D01*
X122730881Y-81359126D01*
X122857046Y-81534000D01*
X123698000Y-81534000D01*
X123698000Y-80691865D01*
X123523123Y-80566868D01*
X123127396Y-80765677D01*
X122837873Y-81100791D01*
X122730881Y-81359126D01*
X122008831Y-81359126D01*
X122009044Y-81115033D01*
X122050163Y-81115069D01*
X122409712Y-80966507D01*
X122685040Y-80691659D01*
X122834230Y-80332370D01*
X122834427Y-80106473D01*
X123121630Y-80225730D01*
X123510663Y-80226069D01*
X123870212Y-80077507D01*
X124145540Y-79802659D01*
X124294730Y-79443370D01*
X124295069Y-79054337D01*
X124229543Y-78895750D01*
X124819000Y-78895750D01*
X124819000Y-79486309D01*
X124915673Y-79719698D01*
X125094301Y-79898327D01*
X125327690Y-79995000D01*
X126168250Y-79995000D01*
X126327000Y-79836250D01*
X126327000Y-78737000D01*
X124977750Y-78737000D01*
X124819000Y-78895750D01*
X124229543Y-78895750D01*
X124146507Y-78694788D01*
X123871659Y-78419460D01*
X123512370Y-78270270D01*
X123123337Y-78269931D01*
X122763788Y-78418493D01*
X122488460Y-78693341D01*
X122339270Y-79052630D01*
X122339073Y-79278527D01*
X122051870Y-79159270D01*
X121662837Y-79158931D01*
X121412212Y-79262487D01*
X121141159Y-78990960D01*
X120781870Y-78841770D01*
X120392837Y-78841431D01*
X120033288Y-78989993D01*
X119757960Y-79264841D01*
X119608770Y-79624130D01*
X119608431Y-80013163D01*
X117306940Y-80013163D01*
X117306940Y-79478500D01*
X117262662Y-79243183D01*
X117123590Y-79027059D01*
X116911390Y-78882069D01*
X116659500Y-78831060D01*
X112734229Y-78831060D01*
X112969540Y-78596159D01*
X113118730Y-78236870D01*
X113119069Y-77847837D01*
X112970507Y-77488288D01*
X112892020Y-77409663D01*
X122021431Y-77409663D01*
X122169993Y-77769212D01*
X122444841Y-78044540D01*
X122804130Y-78193730D01*
X123193163Y-78194069D01*
X123552712Y-78045507D01*
X123828040Y-77770659D01*
X123843390Y-77733691D01*
X124819000Y-77733691D01*
X124819000Y-78324250D01*
X124977750Y-78483000D01*
X126327000Y-78483000D01*
X126327000Y-77383750D01*
X126581000Y-77383750D01*
X126581000Y-78483000D01*
X127930250Y-78483000D01*
X128089000Y-78324250D01*
X128089000Y-77733691D01*
X127992327Y-77500302D01*
X127813699Y-77321673D01*
X127580310Y-77225000D01*
X126739750Y-77225000D01*
X126581000Y-77383750D01*
X126327000Y-77383750D01*
X126168250Y-77225000D01*
X125327690Y-77225000D01*
X125094301Y-77321673D01*
X124915673Y-77500302D01*
X124819000Y-77733691D01*
X123843390Y-77733691D01*
X123977230Y-77411370D01*
X123977569Y-77022337D01*
X123829007Y-76662788D01*
X123554159Y-76387460D01*
X123194870Y-76238270D01*
X122805837Y-76237931D01*
X122446288Y-76386493D01*
X122170960Y-76661341D01*
X122021770Y-77020630D01*
X122021431Y-77409663D01*
X112892020Y-77409663D01*
X112695659Y-77212960D01*
X112336370Y-77063770D01*
X111947337Y-77063431D01*
X111587788Y-77211993D01*
X111312460Y-77486841D01*
X111163270Y-77846130D01*
X111162931Y-78235163D01*
X111311493Y-78594712D01*
X111549338Y-78832972D01*
X111324183Y-78875338D01*
X111108059Y-79014410D01*
X110963069Y-79226610D01*
X110912060Y-79478500D01*
X110912060Y-79794080D01*
X110740837Y-79793931D01*
X110381288Y-79942493D01*
X110105960Y-80217341D01*
X109956770Y-80576630D01*
X109956697Y-80660365D01*
X109828255Y-80852593D01*
X109828255Y-80852594D01*
X109768500Y-81153000D01*
X108787164Y-81153000D01*
X108716007Y-80980788D01*
X108441159Y-80705460D01*
X108081870Y-80556270D01*
X107692837Y-80555931D01*
X107333288Y-80704493D01*
X107057960Y-80979341D01*
X106908770Y-81338630D01*
X106908431Y-81727663D01*
X107056993Y-82087212D01*
X107157669Y-82188064D01*
X107035770Y-82481630D01*
X107035431Y-82870663D01*
X107064619Y-82941304D01*
X106994460Y-83011341D01*
X106845270Y-83370630D01*
X106844931Y-83759663D01*
X102108000Y-83759663D01*
X102108000Y-75590566D01*
X102111163Y-75590569D01*
X102470712Y-75442007D01*
X102535168Y-75377663D01*
X108051431Y-75377663D01*
X108199993Y-75737212D01*
X108474841Y-76012540D01*
X108834130Y-76161730D01*
X109223163Y-76162069D01*
X109582712Y-76013507D01*
X109858040Y-75738659D01*
X110007230Y-75379370D01*
X110007569Y-74990337D01*
X109859007Y-74630788D01*
X109584159Y-74355460D01*
X109546964Y-74340015D01*
X109646212Y-74299007D01*
X109921540Y-74024159D01*
X110070730Y-73664870D01*
X110071069Y-73275837D01*
X109922507Y-72916288D01*
X109844020Y-72837663D01*
X110337431Y-72837663D01*
X110485993Y-73197212D01*
X110760841Y-73472540D01*
X111120130Y-73621730D01*
X111509163Y-73622069D01*
X111792002Y-73505203D01*
X112072630Y-73621730D01*
X112461663Y-73622069D01*
X112821212Y-73473507D01*
X113096540Y-73198659D01*
X113245730Y-72839370D01*
X113246069Y-72450337D01*
X113178107Y-72285855D01*
X113487392Y-72413794D01*
X114655746Y-72413242D01*
X114655431Y-72774163D01*
X114803993Y-73133712D01*
X115078841Y-73409040D01*
X115438130Y-73558230D01*
X115827163Y-73558569D01*
X116078173Y-73454854D01*
X116327130Y-73558230D01*
X116716163Y-73558569D01*
X117075712Y-73410007D01*
X117351040Y-73135159D01*
X117500230Y-72775870D01*
X117500569Y-72386837D01*
X117352007Y-72027288D01*
X117077159Y-71751960D01*
X116717870Y-71602770D01*
X116328837Y-71602431D01*
X116077827Y-71706146D01*
X116046612Y-71693184D01*
X116165775Y-71514380D01*
X114109500Y-69458105D01*
X112053225Y-71514380D01*
X112154272Y-71666001D01*
X112074337Y-71665931D01*
X111791498Y-71782797D01*
X111510870Y-71666270D01*
X111121837Y-71665931D01*
X110762288Y-71814493D01*
X110486960Y-72089341D01*
X110337770Y-72448630D01*
X110337431Y-72837663D01*
X109844020Y-72837663D01*
X109647659Y-72640960D01*
X109288370Y-72491770D01*
X108899337Y-72491431D01*
X108539788Y-72639993D01*
X108264460Y-72914841D01*
X108115270Y-73274130D01*
X108114931Y-73663163D01*
X108263493Y-74022712D01*
X108538341Y-74298040D01*
X108575536Y-74313485D01*
X108476288Y-74354493D01*
X108200960Y-74629341D01*
X108051770Y-74988630D01*
X108051431Y-75377663D01*
X102535168Y-75377663D01*
X102746040Y-75167159D01*
X102895230Y-74807870D01*
X102895508Y-74488663D01*
X105574931Y-74488663D01*
X105723493Y-74848212D01*
X105998341Y-75123540D01*
X106357630Y-75272730D01*
X106746663Y-75273069D01*
X107106212Y-75124507D01*
X107381540Y-74849659D01*
X107530730Y-74490370D01*
X107531069Y-74101337D01*
X107382507Y-73741788D01*
X107107659Y-73466460D01*
X106748370Y-73317270D01*
X106359337Y-73316931D01*
X105999788Y-73465493D01*
X105724460Y-73740341D01*
X105575270Y-74099630D01*
X105574931Y-74488663D01*
X102895508Y-74488663D01*
X102895569Y-74418837D01*
X102747007Y-74059288D01*
X102702500Y-74014703D01*
X102702500Y-71821663D01*
X107035431Y-71821663D01*
X107183993Y-72181212D01*
X107458841Y-72456540D01*
X107818130Y-72605730D01*
X108207163Y-72606069D01*
X108566712Y-72457507D01*
X108842040Y-72182659D01*
X108991230Y-71823370D01*
X108991569Y-71434337D01*
X108843007Y-71074788D01*
X108701130Y-70932663D01*
X109765931Y-70932663D01*
X109914493Y-71292212D01*
X110189341Y-71567540D01*
X110548630Y-71716730D01*
X110937663Y-71717069D01*
X111297212Y-71568507D01*
X111572540Y-71293659D01*
X111624427Y-71168701D01*
X111873620Y-71334775D01*
X113929895Y-69278500D01*
X114289105Y-69278500D01*
X116345380Y-71334775D01*
X116768064Y-71053079D01*
X117043696Y-70386750D01*
X124819000Y-70386750D01*
X124819000Y-70977309D01*
X124915673Y-71210698D01*
X125094301Y-71389327D01*
X125327690Y-71486000D01*
X126168250Y-71486000D01*
X126327000Y-71327250D01*
X126327000Y-70228000D01*
X124977750Y-70228000D01*
X124819000Y-70386750D01*
X117043696Y-70386750D01*
X117244794Y-69900608D01*
X117244475Y-69224691D01*
X124819000Y-69224691D01*
X124819000Y-69815250D01*
X124977750Y-69974000D01*
X126327000Y-69974000D01*
X126327000Y-68874750D01*
X126581000Y-68874750D01*
X126581000Y-69974000D01*
X127930250Y-69974000D01*
X128089000Y-69815250D01*
X128089000Y-69224691D01*
X127992327Y-68991302D01*
X127813699Y-68812673D01*
X127580310Y-68716000D01*
X126739750Y-68716000D01*
X126581000Y-68874750D01*
X126327000Y-68874750D01*
X126168250Y-68716000D01*
X125327690Y-68716000D01*
X125094301Y-68812673D01*
X124915673Y-68991302D01*
X124819000Y-69224691D01*
X117244475Y-69224691D01*
X117244205Y-68653428D01*
X116925773Y-67884663D01*
X118973431Y-67884663D01*
X119121993Y-68244212D01*
X119396841Y-68519540D01*
X119756130Y-68668730D01*
X120145163Y-68669069D01*
X120504712Y-68520507D01*
X120780040Y-68245659D01*
X120929230Y-67886370D01*
X120929569Y-67497337D01*
X120781007Y-67137788D01*
X120506159Y-66862460D01*
X120146870Y-66713270D01*
X119757837Y-66712931D01*
X119398288Y-66861493D01*
X119122960Y-67136341D01*
X118973770Y-67495630D01*
X118973431Y-67884663D01*
X116925773Y-67884663D01*
X116768064Y-67503921D01*
X116345380Y-67222225D01*
X114289105Y-69278500D01*
X113929895Y-69278500D01*
X113915753Y-69264358D01*
X114095358Y-69084753D01*
X114109500Y-69098895D01*
X116165775Y-67042620D01*
X115884079Y-66619936D01*
X114731608Y-66143206D01*
X113484428Y-66143795D01*
X112705649Y-66466375D01*
X112589507Y-66185288D01*
X112314659Y-65909960D01*
X111955370Y-65760770D01*
X111566337Y-65760431D01*
X111206788Y-65908993D01*
X110931460Y-66183841D01*
X110817182Y-66459053D01*
X110677337Y-66458931D01*
X110317788Y-66607493D01*
X110042460Y-66882341D01*
X109893270Y-67241630D01*
X109892931Y-67630663D01*
X110041493Y-67990212D01*
X110316341Y-68265540D01*
X110675630Y-68414730D01*
X111064663Y-68415069D01*
X111075963Y-68410400D01*
X110974206Y-68656392D01*
X110974308Y-68872245D01*
X110613837Y-68871931D01*
X110254288Y-69020493D01*
X109978960Y-69295341D01*
X109829770Y-69654630D01*
X109829431Y-70043663D01*
X109901474Y-70218022D01*
X109766270Y-70543630D01*
X109765931Y-70932663D01*
X108701130Y-70932663D01*
X108568159Y-70799460D01*
X108208870Y-70650270D01*
X107819837Y-70649931D01*
X107460288Y-70798493D01*
X107184960Y-71073341D01*
X107035770Y-71432630D01*
X107035431Y-71821663D01*
X102702500Y-71821663D01*
X102702500Y-71464012D01*
X102809540Y-71357159D01*
X102958730Y-70997870D01*
X102959044Y-70637257D01*
X103317663Y-70637569D01*
X103677212Y-70489007D01*
X103952540Y-70214159D01*
X104101730Y-69854870D01*
X104102069Y-69465837D01*
X103980035Y-69170491D01*
X104079540Y-69071159D01*
X104228730Y-68711870D01*
X104229069Y-68322837D01*
X104080507Y-67963288D01*
X103805659Y-67687960D01*
X103446370Y-67538770D01*
X103057337Y-67538431D01*
X102697788Y-67686993D01*
X102422460Y-67961841D01*
X102273270Y-68321130D01*
X102272931Y-68710163D01*
X102394965Y-69005509D01*
X102295460Y-69104841D01*
X102146270Y-69464130D01*
X102145956Y-69824743D01*
X102108000Y-69824710D01*
X102108000Y-66868663D01*
X106844931Y-66868663D01*
X106993493Y-67228212D01*
X107101772Y-67336680D01*
X107035770Y-67495630D01*
X107035431Y-67884663D01*
X107101738Y-68045139D01*
X107057960Y-68088841D01*
X106908770Y-68448130D01*
X106908431Y-68837163D01*
X107056969Y-69196653D01*
X106972270Y-69400630D01*
X106971931Y-69789663D01*
X107120493Y-70149212D01*
X107395341Y-70424540D01*
X107754630Y-70573730D01*
X108143663Y-70574069D01*
X108503212Y-70425507D01*
X108778540Y-70150659D01*
X108927730Y-69791370D01*
X108928069Y-69402337D01*
X108779531Y-69042847D01*
X108864230Y-68838870D01*
X108864569Y-68449837D01*
X108798262Y-68289361D01*
X108842040Y-68245659D01*
X108991230Y-67886370D01*
X108991569Y-67497337D01*
X108843007Y-67137788D01*
X108734728Y-67029320D01*
X108800730Y-66870370D01*
X108801069Y-66481337D01*
X108652507Y-66121788D01*
X108377659Y-65846460D01*
X108018370Y-65697270D01*
X107629337Y-65696931D01*
X107269788Y-65845493D01*
X106994460Y-66120341D01*
X106845270Y-66479630D01*
X106844931Y-66868663D01*
X102108000Y-66868663D01*
X102108000Y-64253000D01*
X102330250Y-64253000D01*
X102489000Y-64094250D01*
X102489000Y-63295000D01*
X102743000Y-63295000D01*
X102743000Y-64094250D01*
X102901750Y-64253000D01*
X103592310Y-64253000D01*
X103825699Y-64156327D01*
X103907362Y-64074663D01*
X109384931Y-64074663D01*
X109533493Y-64434212D01*
X109808341Y-64709540D01*
X110167630Y-64858730D01*
X110556663Y-64859069D01*
X110916212Y-64710507D01*
X111191540Y-64435659D01*
X111340730Y-64076370D01*
X111341069Y-63687337D01*
X111192507Y-63327788D01*
X110917659Y-63052460D01*
X110558370Y-62903270D01*
X110169337Y-62902931D01*
X109809788Y-63051493D01*
X109534460Y-63326341D01*
X109385270Y-63685630D01*
X109384931Y-64074663D01*
X103907362Y-64074663D01*
X104004327Y-63977698D01*
X104101000Y-63744309D01*
X104101000Y-63453750D01*
X103942250Y-63295000D01*
X102743000Y-63295000D01*
X102489000Y-63295000D01*
X102469000Y-63295000D01*
X102469000Y-63041000D01*
X102489000Y-63041000D01*
X102489000Y-62241750D01*
X102743000Y-62241750D01*
X102743000Y-63041000D01*
X103942250Y-63041000D01*
X104101000Y-62882250D01*
X104101000Y-62591691D01*
X104004327Y-62358302D01*
X103825699Y-62179673D01*
X103592310Y-62083000D01*
X102901750Y-62083000D01*
X102743000Y-62241750D01*
X102489000Y-62241750D01*
X102330250Y-62083000D01*
X102108000Y-62083000D01*
X102108000Y-61708059D01*
X102188341Y-61788540D01*
X102547630Y-61937730D01*
X102936663Y-61938069D01*
X103296212Y-61789507D01*
X103571540Y-61514659D01*
X103695071Y-61217163D01*
X106273431Y-61217163D01*
X106421993Y-61576712D01*
X106696841Y-61852040D01*
X107056130Y-62001230D01*
X107445163Y-62001569D01*
X107804712Y-61853007D01*
X108080040Y-61578159D01*
X108229230Y-61218870D01*
X108229569Y-60829837D01*
X108081007Y-60470288D01*
X107806159Y-60194960D01*
X107446870Y-60045770D01*
X107057837Y-60045431D01*
X106698288Y-60193993D01*
X106422960Y-60468841D01*
X106273770Y-60828130D01*
X106273431Y-61217163D01*
X103695071Y-61217163D01*
X103720730Y-61155370D01*
X103721032Y-60808476D01*
X103917441Y-60682090D01*
X104062431Y-60469890D01*
X104113440Y-60218000D01*
X104113440Y-59318000D01*
X104069162Y-59082683D01*
X103930090Y-58866559D01*
X103717890Y-58721569D01*
X103466000Y-58670560D01*
X102108000Y-58670560D01*
X102108000Y-58232663D01*
X107479931Y-58232663D01*
X107628493Y-58592212D01*
X107773485Y-58737457D01*
X107692960Y-58817841D01*
X107543770Y-59177130D01*
X107543431Y-59566163D01*
X107691993Y-59925712D01*
X107966841Y-60201040D01*
X108326130Y-60350230D01*
X108715163Y-60350569D01*
X109074712Y-60202007D01*
X109350040Y-59927159D01*
X109499230Y-59567870D01*
X109499569Y-59178837D01*
X109351007Y-58819288D01*
X109206015Y-58674043D01*
X109286540Y-58593659D01*
X109435730Y-58234370D01*
X109436069Y-57845337D01*
X109386208Y-57724663D01*
X110083431Y-57724663D01*
X110231993Y-58084212D01*
X110506841Y-58359540D01*
X110866130Y-58508730D01*
X110912060Y-58508770D01*
X110912060Y-59078500D01*
X110956338Y-59313817D01*
X111095410Y-59529941D01*
X111307610Y-59674931D01*
X111559500Y-59725940D01*
X116052568Y-59725940D01*
X116052431Y-59883663D01*
X116200993Y-60243212D01*
X116365137Y-60407642D01*
X116243270Y-60701130D01*
X116242931Y-61090163D01*
X116391493Y-61449712D01*
X116666341Y-61725040D01*
X117025630Y-61874230D01*
X117414663Y-61874569D01*
X117774212Y-61726007D01*
X118049540Y-61451159D01*
X118198730Y-61091870D01*
X118198947Y-60842691D01*
X124819000Y-60842691D01*
X124819000Y-61433250D01*
X124977750Y-61592000D01*
X126327000Y-61592000D01*
X126327000Y-60492750D01*
X126581000Y-60492750D01*
X126581000Y-61592000D01*
X127930250Y-61592000D01*
X128089000Y-61433250D01*
X128089000Y-60842691D01*
X127992327Y-60609302D01*
X127813699Y-60430673D01*
X127580310Y-60334000D01*
X126739750Y-60334000D01*
X126581000Y-60492750D01*
X126327000Y-60492750D01*
X126168250Y-60334000D01*
X125327690Y-60334000D01*
X125094301Y-60430673D01*
X124915673Y-60609302D01*
X124819000Y-60842691D01*
X118198947Y-60842691D01*
X118199069Y-60702837D01*
X118050507Y-60343288D01*
X117886363Y-60178858D01*
X118008230Y-59885370D01*
X118008569Y-59496337D01*
X117860007Y-59136788D01*
X117585159Y-58861460D01*
X117306940Y-58745933D01*
X117306940Y-56578500D01*
X117262662Y-56343183D01*
X117123590Y-56127059D01*
X116911390Y-55982069D01*
X116659500Y-55931060D01*
X111559500Y-55931060D01*
X111324183Y-55975338D01*
X111108059Y-56114410D01*
X110963069Y-56326610D01*
X110917229Y-56552974D01*
X110867837Y-56552931D01*
X110508288Y-56701493D01*
X110232960Y-56976341D01*
X110083770Y-57335630D01*
X110083431Y-57724663D01*
X109386208Y-57724663D01*
X109287507Y-57485788D01*
X109012659Y-57210460D01*
X108653370Y-57061270D01*
X108264337Y-57060931D01*
X107904788Y-57209493D01*
X107629460Y-57484341D01*
X107480270Y-57843630D01*
X107479931Y-58232663D01*
X102108000Y-58232663D01*
X102108000Y-57698675D01*
X102343118Y-57934204D01*
X102980573Y-58198899D01*
X103670799Y-58199501D01*
X104308715Y-57935919D01*
X104797204Y-57448282D01*
X105061899Y-56810827D01*
X105062501Y-56120601D01*
X104798919Y-55482685D01*
X104561649Y-55245000D01*
X126146658Y-55245000D01*
X125834796Y-55556318D01*
X125834796Y-55556318D01*
G37*
X125834796Y-55556318D02*
X125570101Y-56193773D01*
X125569499Y-56883999D01*
X125833081Y-57521915D01*
X126320718Y-58010404D01*
X126958173Y-58275099D01*
X127648399Y-58275701D01*
X128286315Y-58012119D01*
X128574693Y-57724244D01*
X128574340Y-61888273D01*
X128463697Y-61933990D01*
X128089000Y-62308033D01*
X128089000Y-62004750D01*
X127930250Y-61846000D01*
X126581000Y-61846000D01*
X126581000Y-61866000D01*
X126327000Y-61866000D01*
X126327000Y-61846000D01*
X124977750Y-61846000D01*
X124819000Y-62004750D01*
X124819000Y-62595309D01*
X124915673Y-62828698D01*
X125094301Y-63007327D01*
X125133183Y-63023432D01*
X125133011Y-63220966D01*
X125002559Y-63304910D01*
X124857569Y-63517110D01*
X124806560Y-63769000D01*
X124806560Y-64554180D01*
X124520337Y-64553931D01*
X124160788Y-64702493D01*
X123885460Y-64977341D01*
X123736270Y-65336630D01*
X123735931Y-65725663D01*
X123884493Y-66085212D01*
X124159341Y-66360540D01*
X124518630Y-66509730D01*
X124907663Y-66510069D01*
X125267212Y-66361507D01*
X125542540Y-66086659D01*
X125613221Y-65916440D01*
X127454000Y-65916440D01*
X127689317Y-65872162D01*
X127905441Y-65733090D01*
X128050431Y-65520890D01*
X128101440Y-65269000D01*
X128101440Y-63941810D01*
X128461630Y-64302629D01*
X128574132Y-64349344D01*
X128573630Y-70270567D01*
X128463697Y-70315990D01*
X128089000Y-70690033D01*
X128089000Y-70386750D01*
X127930250Y-70228000D01*
X126581000Y-70228000D01*
X126581000Y-71327250D01*
X126739750Y-71486000D01*
X127580310Y-71486000D01*
X127813699Y-71389327D01*
X127857135Y-71345891D01*
X127856863Y-71657724D01*
X127705890Y-71554569D01*
X127454000Y-71503560D01*
X125454000Y-71503560D01*
X125218683Y-71547838D01*
X125002559Y-71686910D01*
X124857569Y-71899110D01*
X124806560Y-72151000D01*
X124806560Y-73651000D01*
X124850838Y-73886317D01*
X124989910Y-74102441D01*
X125202110Y-74247431D01*
X125454000Y-74298440D01*
X127454000Y-74298440D01*
X127689317Y-74254162D01*
X127905441Y-74115090D01*
X127963110Y-74030688D01*
X128201630Y-74129730D01*
X128573303Y-74130054D01*
X128572909Y-78779865D01*
X128463697Y-78824990D01*
X128089000Y-79199033D01*
X128089000Y-78895750D01*
X127930250Y-78737000D01*
X126581000Y-78737000D01*
X126581000Y-79836250D01*
X126739750Y-79995000D01*
X127580310Y-79995000D01*
X127813699Y-79898327D01*
X127857135Y-79854891D01*
X127856863Y-80166724D01*
X127705890Y-80063569D01*
X127454000Y-80012560D01*
X125454000Y-80012560D01*
X125218683Y-80056838D01*
X125002559Y-80195910D01*
X124857569Y-80408110D01*
X124806560Y-80660000D01*
X124806560Y-81094347D01*
X124522604Y-80765677D01*
X124126877Y-80566868D01*
X123952000Y-80691865D01*
X123952000Y-81534000D01*
X123972000Y-81534000D01*
X123972000Y-81788000D01*
X123952000Y-81788000D01*
X123952000Y-81808000D01*
X123907564Y-81808000D01*
X123847236Y-81796000D01*
X123802764Y-81796000D01*
X123742436Y-81808000D01*
X123698000Y-81808000D01*
X123698000Y-81788000D01*
X122857046Y-81788000D01*
X122730881Y-81962874D01*
X122837873Y-82221209D01*
X122894451Y-82286696D01*
X122754161Y-82496654D01*
X122667764Y-82931000D01*
X122754161Y-83365346D01*
X122888234Y-83566000D01*
X122754161Y-83766654D01*
X122667764Y-84201000D01*
X122754161Y-84635346D01*
X122888234Y-84836000D01*
X122754161Y-85036654D01*
X122667764Y-85471000D01*
X122754161Y-85905346D01*
X122769805Y-85928759D01*
X122728569Y-85989110D01*
X122677560Y-86241000D01*
X122677560Y-87241000D01*
X122721838Y-87476317D01*
X122860910Y-87692441D01*
X122918221Y-87731600D01*
X120332494Y-87731600D01*
X119653568Y-87080167D01*
X119534774Y-87004294D01*
X119417605Y-86926004D01*
X119409749Y-86924441D01*
X119402997Y-86920129D01*
X119264230Y-86895496D01*
X119126000Y-86868000D01*
X111912400Y-86868000D01*
X111894033Y-86871654D01*
X111874517Y-86868103D01*
X111583902Y-86930875D01*
X111339430Y-87100084D01*
X110728274Y-87731600D01*
X104561498Y-87731600D01*
X104898804Y-87394882D01*
X105163499Y-86757427D01*
X105164101Y-86067201D01*
X104900519Y-85429285D01*
X104412882Y-84940796D01*
X103775427Y-84676101D01*
X103085201Y-84675499D01*
X102447285Y-84939081D01*
X102108000Y-85277774D01*
X102108000Y-83759663D01*
X106844931Y-83759663D01*
X106993493Y-84119212D01*
X107268341Y-84394540D01*
X107627630Y-84543730D01*
X108016663Y-84544069D01*
X108376212Y-84395507D01*
X108651540Y-84120659D01*
X108800730Y-83761370D01*
X108801069Y-83372337D01*
X108771881Y-83301696D01*
X108842040Y-83231659D01*
X108991230Y-82872370D01*
X108991569Y-82483337D01*
X108843007Y-82123788D01*
X108742331Y-82022936D01*
X108864230Y-81729370D01*
X108864569Y-81340337D01*
X108787164Y-81153000D01*
X109768500Y-81153000D01*
X109768500Y-83820000D01*
X109828255Y-84120407D01*
X109998421Y-84375079D01*
X110823921Y-85200579D01*
X111078593Y-85370745D01*
X111379000Y-85430500D01*
X112358835Y-85430500D01*
X112517130Y-85496230D01*
X112906163Y-85496569D01*
X113265712Y-85348007D01*
X113541040Y-85073159D01*
X113611836Y-84902663D01*
X114147431Y-84902663D01*
X114295993Y-85262212D01*
X114570841Y-85537540D01*
X114930130Y-85686730D01*
X115319163Y-85687069D01*
X115614431Y-85565067D01*
X115650341Y-85601040D01*
X116009630Y-85750230D01*
X116398663Y-85750569D01*
X116758212Y-85602007D01*
X117033540Y-85327159D01*
X117182730Y-84967870D01*
X117183069Y-84578837D01*
X117082218Y-84334757D01*
X117279630Y-84416730D01*
X117668663Y-84417069D01*
X118028212Y-84268507D01*
X118303540Y-83993659D01*
X118452730Y-83634370D01*
X118453069Y-83245337D01*
X118304507Y-82885788D01*
X118029659Y-82610460D01*
X117670370Y-82461270D01*
X117281337Y-82460931D01*
X116921788Y-82609493D01*
X116646460Y-82884341D01*
X116497270Y-83243630D01*
X116496931Y-83632663D01*
X116597782Y-83876743D01*
X116400370Y-83794770D01*
X116011337Y-83794431D01*
X115716069Y-83916433D01*
X115680159Y-83880460D01*
X115320870Y-83731270D01*
X114931837Y-83730931D01*
X114572288Y-83879493D01*
X114296960Y-84154341D01*
X114147770Y-84513630D01*
X114147431Y-84902663D01*
X113611836Y-84902663D01*
X113690230Y-84713870D01*
X113690569Y-84324837D01*
X113542007Y-83965288D01*
X113267159Y-83689960D01*
X112907870Y-83540770D01*
X112518837Y-83540431D01*
X112159288Y-83688993D01*
X111987481Y-83860500D01*
X111704158Y-83860500D01*
X111338500Y-83494842D01*
X111338500Y-82581186D01*
X111559500Y-82625940D01*
X116659500Y-82625940D01*
X116894817Y-82581662D01*
X117110941Y-82442590D01*
X117255931Y-82230390D01*
X117306940Y-81978500D01*
X117306940Y-80013163D01*
X119608431Y-80013163D01*
X119756993Y-80372712D01*
X120031841Y-80648040D01*
X120207026Y-80720783D01*
X120202460Y-80725341D01*
X120053270Y-81084630D01*
X120052931Y-81473663D01*
X120201493Y-81833212D01*
X120476341Y-82108540D01*
X120835630Y-82257730D01*
X121224663Y-82258069D01*
X121584212Y-82109507D01*
X121859540Y-81834659D01*
X122008730Y-81475370D01*
X122008831Y-81359126D01*
X122730881Y-81359126D01*
X122857046Y-81534000D01*
X123698000Y-81534000D01*
X123698000Y-80691865D01*
X123523123Y-80566868D01*
X123127396Y-80765677D01*
X122837873Y-81100791D01*
X122730881Y-81359126D01*
X122008831Y-81359126D01*
X122009044Y-81115033D01*
X122050163Y-81115069D01*
X122409712Y-80966507D01*
X122685040Y-80691659D01*
X122834230Y-80332370D01*
X122834427Y-80106473D01*
X123121630Y-80225730D01*
X123510663Y-80226069D01*
X123870212Y-80077507D01*
X124145540Y-79802659D01*
X124294730Y-79443370D01*
X124295069Y-79054337D01*
X124229543Y-78895750D01*
X124819000Y-78895750D01*
X124819000Y-79486309D01*
X124915673Y-79719698D01*
X125094301Y-79898327D01*
X125327690Y-79995000D01*
X126168250Y-79995000D01*
X126327000Y-79836250D01*
X126327000Y-78737000D01*
X124977750Y-78737000D01*
X124819000Y-78895750D01*
X124229543Y-78895750D01*
X124146507Y-78694788D01*
X123871659Y-78419460D01*
X123512370Y-78270270D01*
X123123337Y-78269931D01*
X122763788Y-78418493D01*
X122488460Y-78693341D01*
X122339270Y-79052630D01*
X122339073Y-79278527D01*
X122051870Y-79159270D01*
X121662837Y-79158931D01*
X121412212Y-79262487D01*
X121141159Y-78990960D01*
X120781870Y-78841770D01*
X120392837Y-78841431D01*
X120033288Y-78989993D01*
X119757960Y-79264841D01*
X119608770Y-79624130D01*
X119608431Y-80013163D01*
X117306940Y-80013163D01*
X117306940Y-79478500D01*
X117262662Y-79243183D01*
X117123590Y-79027059D01*
X116911390Y-78882069D01*
X116659500Y-78831060D01*
X112734229Y-78831060D01*
X112969540Y-78596159D01*
X113118730Y-78236870D01*
X113119069Y-77847837D01*
X112970507Y-77488288D01*
X112892020Y-77409663D01*
X122021431Y-77409663D01*
X122169993Y-77769212D01*
X122444841Y-78044540D01*
X122804130Y-78193730D01*
X123193163Y-78194069D01*
X123552712Y-78045507D01*
X123828040Y-77770659D01*
X123843390Y-77733691D01*
X124819000Y-77733691D01*
X124819000Y-78324250D01*
X124977750Y-78483000D01*
X126327000Y-78483000D01*
X126327000Y-77383750D01*
X126581000Y-77383750D01*
X126581000Y-78483000D01*
X127930250Y-78483000D01*
X128089000Y-78324250D01*
X128089000Y-77733691D01*
X127992327Y-77500302D01*
X127813699Y-77321673D01*
X127580310Y-77225000D01*
X126739750Y-77225000D01*
X126581000Y-77383750D01*
X126327000Y-77383750D01*
X126168250Y-77225000D01*
X125327690Y-77225000D01*
X125094301Y-77321673D01*
X124915673Y-77500302D01*
X124819000Y-77733691D01*
X123843390Y-77733691D01*
X123977230Y-77411370D01*
X123977569Y-77022337D01*
X123829007Y-76662788D01*
X123554159Y-76387460D01*
X123194870Y-76238270D01*
X122805837Y-76237931D01*
X122446288Y-76386493D01*
X122170960Y-76661341D01*
X122021770Y-77020630D01*
X122021431Y-77409663D01*
X112892020Y-77409663D01*
X112695659Y-77212960D01*
X112336370Y-77063770D01*
X111947337Y-77063431D01*
X111587788Y-77211993D01*
X111312460Y-77486841D01*
X111163270Y-77846130D01*
X111162931Y-78235163D01*
X111311493Y-78594712D01*
X111549338Y-78832972D01*
X111324183Y-78875338D01*
X111108059Y-79014410D01*
X110963069Y-79226610D01*
X110912060Y-79478500D01*
X110912060Y-79794080D01*
X110740837Y-79793931D01*
X110381288Y-79942493D01*
X110105960Y-80217341D01*
X109956770Y-80576630D01*
X109956697Y-80660365D01*
X109828255Y-80852593D01*
X109828255Y-80852594D01*
X109768500Y-81153000D01*
X108787164Y-81153000D01*
X108716007Y-80980788D01*
X108441159Y-80705460D01*
X108081870Y-80556270D01*
X107692837Y-80555931D01*
X107333288Y-80704493D01*
X107057960Y-80979341D01*
X106908770Y-81338630D01*
X106908431Y-81727663D01*
X107056993Y-82087212D01*
X107157669Y-82188064D01*
X107035770Y-82481630D01*
X107035431Y-82870663D01*
X107064619Y-82941304D01*
X106994460Y-83011341D01*
X106845270Y-83370630D01*
X106844931Y-83759663D01*
X102108000Y-83759663D01*
X102108000Y-75590566D01*
X102111163Y-75590569D01*
X102470712Y-75442007D01*
X102535168Y-75377663D01*
X108051431Y-75377663D01*
X108199993Y-75737212D01*
X108474841Y-76012540D01*
X108834130Y-76161730D01*
X109223163Y-76162069D01*
X109582712Y-76013507D01*
X109858040Y-75738659D01*
X110007230Y-75379370D01*
X110007569Y-74990337D01*
X109859007Y-74630788D01*
X109584159Y-74355460D01*
X109546964Y-74340015D01*
X109646212Y-74299007D01*
X109921540Y-74024159D01*
X110070730Y-73664870D01*
X110071069Y-73275837D01*
X109922507Y-72916288D01*
X109844020Y-72837663D01*
X110337431Y-72837663D01*
X110485993Y-73197212D01*
X110760841Y-73472540D01*
X111120130Y-73621730D01*
X111509163Y-73622069D01*
X111792002Y-73505203D01*
X112072630Y-73621730D01*
X112461663Y-73622069D01*
X112821212Y-73473507D01*
X113096540Y-73198659D01*
X113245730Y-72839370D01*
X113246069Y-72450337D01*
X113178107Y-72285855D01*
X113487392Y-72413794D01*
X114655746Y-72413242D01*
X114655431Y-72774163D01*
X114803993Y-73133712D01*
X115078841Y-73409040D01*
X115438130Y-73558230D01*
X115827163Y-73558569D01*
X116078173Y-73454854D01*
X116327130Y-73558230D01*
X116716163Y-73558569D01*
X117075712Y-73410007D01*
X117351040Y-73135159D01*
X117500230Y-72775870D01*
X117500569Y-72386837D01*
X117352007Y-72027288D01*
X117077159Y-71751960D01*
X116717870Y-71602770D01*
X116328837Y-71602431D01*
X116077827Y-71706146D01*
X116046612Y-71693184D01*
X116165775Y-71514380D01*
X114109500Y-69458105D01*
X112053225Y-71514380D01*
X112154272Y-71666001D01*
X112074337Y-71665931D01*
X111791498Y-71782797D01*
X111510870Y-71666270D01*
X111121837Y-71665931D01*
X110762288Y-71814493D01*
X110486960Y-72089341D01*
X110337770Y-72448630D01*
X110337431Y-72837663D01*
X109844020Y-72837663D01*
X109647659Y-72640960D01*
X109288370Y-72491770D01*
X108899337Y-72491431D01*
X108539788Y-72639993D01*
X108264460Y-72914841D01*
X108115270Y-73274130D01*
X108114931Y-73663163D01*
X108263493Y-74022712D01*
X108538341Y-74298040D01*
X108575536Y-74313485D01*
X108476288Y-74354493D01*
X108200960Y-74629341D01*
X108051770Y-74988630D01*
X108051431Y-75377663D01*
X102535168Y-75377663D01*
X102746040Y-75167159D01*
X102895230Y-74807870D01*
X102895508Y-74488663D01*
X105574931Y-74488663D01*
X105723493Y-74848212D01*
X105998341Y-75123540D01*
X106357630Y-75272730D01*
X106746663Y-75273069D01*
X107106212Y-75124507D01*
X107381540Y-74849659D01*
X107530730Y-74490370D01*
X107531069Y-74101337D01*
X107382507Y-73741788D01*
X107107659Y-73466460D01*
X106748370Y-73317270D01*
X106359337Y-73316931D01*
X105999788Y-73465493D01*
X105724460Y-73740341D01*
X105575270Y-74099630D01*
X105574931Y-74488663D01*
X102895508Y-74488663D01*
X102895569Y-74418837D01*
X102747007Y-74059288D01*
X102702500Y-74014703D01*
X102702500Y-71821663D01*
X107035431Y-71821663D01*
X107183993Y-72181212D01*
X107458841Y-72456540D01*
X107818130Y-72605730D01*
X108207163Y-72606069D01*
X108566712Y-72457507D01*
X108842040Y-72182659D01*
X108991230Y-71823370D01*
X108991569Y-71434337D01*
X108843007Y-71074788D01*
X108701130Y-70932663D01*
X109765931Y-70932663D01*
X109914493Y-71292212D01*
X110189341Y-71567540D01*
X110548630Y-71716730D01*
X110937663Y-71717069D01*
X111297212Y-71568507D01*
X111572540Y-71293659D01*
X111624427Y-71168701D01*
X111873620Y-71334775D01*
X113929895Y-69278500D01*
X114289105Y-69278500D01*
X116345380Y-71334775D01*
X116768064Y-71053079D01*
X117043696Y-70386750D01*
X124819000Y-70386750D01*
X124819000Y-70977309D01*
X124915673Y-71210698D01*
X125094301Y-71389327D01*
X125327690Y-71486000D01*
X126168250Y-71486000D01*
X126327000Y-71327250D01*
X126327000Y-70228000D01*
X124977750Y-70228000D01*
X124819000Y-70386750D01*
X117043696Y-70386750D01*
X117244794Y-69900608D01*
X117244475Y-69224691D01*
X124819000Y-69224691D01*
X124819000Y-69815250D01*
X124977750Y-69974000D01*
X126327000Y-69974000D01*
X126327000Y-68874750D01*
X126581000Y-68874750D01*
X126581000Y-69974000D01*
X127930250Y-69974000D01*
X128089000Y-69815250D01*
X128089000Y-69224691D01*
X127992327Y-68991302D01*
X127813699Y-68812673D01*
X127580310Y-68716000D01*
X126739750Y-68716000D01*
X126581000Y-68874750D01*
X126327000Y-68874750D01*
X126168250Y-68716000D01*
X125327690Y-68716000D01*
X125094301Y-68812673D01*
X124915673Y-68991302D01*
X124819000Y-69224691D01*
X117244475Y-69224691D01*
X117244205Y-68653428D01*
X116925773Y-67884663D01*
X118973431Y-67884663D01*
X119121993Y-68244212D01*
X119396841Y-68519540D01*
X119756130Y-68668730D01*
X120145163Y-68669069D01*
X120504712Y-68520507D01*
X120780040Y-68245659D01*
X120929230Y-67886370D01*
X120929569Y-67497337D01*
X120781007Y-67137788D01*
X120506159Y-66862460D01*
X120146870Y-66713270D01*
X119757837Y-66712931D01*
X119398288Y-66861493D01*
X119122960Y-67136341D01*
X118973770Y-67495630D01*
X118973431Y-67884663D01*
X116925773Y-67884663D01*
X116768064Y-67503921D01*
X116345380Y-67222225D01*
X114289105Y-69278500D01*
X113929895Y-69278500D01*
X113915753Y-69264358D01*
X114095358Y-69084753D01*
X114109500Y-69098895D01*
X116165775Y-67042620D01*
X115884079Y-66619936D01*
X114731608Y-66143206D01*
X113484428Y-66143795D01*
X112705649Y-66466375D01*
X112589507Y-66185288D01*
X112314659Y-65909960D01*
X111955370Y-65760770D01*
X111566337Y-65760431D01*
X111206788Y-65908993D01*
X110931460Y-66183841D01*
X110817182Y-66459053D01*
X110677337Y-66458931D01*
X110317788Y-66607493D01*
X110042460Y-66882341D01*
X109893270Y-67241630D01*
X109892931Y-67630663D01*
X110041493Y-67990212D01*
X110316341Y-68265540D01*
X110675630Y-68414730D01*
X111064663Y-68415069D01*
X111075963Y-68410400D01*
X110974206Y-68656392D01*
X110974308Y-68872245D01*
X110613837Y-68871931D01*
X110254288Y-69020493D01*
X109978960Y-69295341D01*
X109829770Y-69654630D01*
X109829431Y-70043663D01*
X109901474Y-70218022D01*
X109766270Y-70543630D01*
X109765931Y-70932663D01*
X108701130Y-70932663D01*
X108568159Y-70799460D01*
X108208870Y-70650270D01*
X107819837Y-70649931D01*
X107460288Y-70798493D01*
X107184960Y-71073341D01*
X107035770Y-71432630D01*
X107035431Y-71821663D01*
X102702500Y-71821663D01*
X102702500Y-71464012D01*
X102809540Y-71357159D01*
X102958730Y-70997870D01*
X102959044Y-70637257D01*
X103317663Y-70637569D01*
X103677212Y-70489007D01*
X103952540Y-70214159D01*
X104101730Y-69854870D01*
X104102069Y-69465837D01*
X103980035Y-69170491D01*
X104079540Y-69071159D01*
X104228730Y-68711870D01*
X104229069Y-68322837D01*
X104080507Y-67963288D01*
X103805659Y-67687960D01*
X103446370Y-67538770D01*
X103057337Y-67538431D01*
X102697788Y-67686993D01*
X102422460Y-67961841D01*
X102273270Y-68321130D01*
X102272931Y-68710163D01*
X102394965Y-69005509D01*
X102295460Y-69104841D01*
X102146270Y-69464130D01*
X102145956Y-69824743D01*
X102108000Y-69824710D01*
X102108000Y-66868663D01*
X106844931Y-66868663D01*
X106993493Y-67228212D01*
X107101772Y-67336680D01*
X107035770Y-67495630D01*
X107035431Y-67884663D01*
X107101738Y-68045139D01*
X107057960Y-68088841D01*
X106908770Y-68448130D01*
X106908431Y-68837163D01*
X107056969Y-69196653D01*
X106972270Y-69400630D01*
X106971931Y-69789663D01*
X107120493Y-70149212D01*
X107395341Y-70424540D01*
X107754630Y-70573730D01*
X108143663Y-70574069D01*
X108503212Y-70425507D01*
X108778540Y-70150659D01*
X108927730Y-69791370D01*
X108928069Y-69402337D01*
X108779531Y-69042847D01*
X108864230Y-68838870D01*
X108864569Y-68449837D01*
X108798262Y-68289361D01*
X108842040Y-68245659D01*
X108991230Y-67886370D01*
X108991569Y-67497337D01*
X108843007Y-67137788D01*
X108734728Y-67029320D01*
X108800730Y-66870370D01*
X108801069Y-66481337D01*
X108652507Y-66121788D01*
X108377659Y-65846460D01*
X108018370Y-65697270D01*
X107629337Y-65696931D01*
X107269788Y-65845493D01*
X106994460Y-66120341D01*
X106845270Y-66479630D01*
X106844931Y-66868663D01*
X102108000Y-66868663D01*
X102108000Y-64253000D01*
X102330250Y-64253000D01*
X102489000Y-64094250D01*
X102489000Y-63295000D01*
X102743000Y-63295000D01*
X102743000Y-64094250D01*
X102901750Y-64253000D01*
X103592310Y-64253000D01*
X103825699Y-64156327D01*
X103907362Y-64074663D01*
X109384931Y-64074663D01*
X109533493Y-64434212D01*
X109808341Y-64709540D01*
X110167630Y-64858730D01*
X110556663Y-64859069D01*
X110916212Y-64710507D01*
X111191540Y-64435659D01*
X111340730Y-64076370D01*
X111341069Y-63687337D01*
X111192507Y-63327788D01*
X110917659Y-63052460D01*
X110558370Y-62903270D01*
X110169337Y-62902931D01*
X109809788Y-63051493D01*
X109534460Y-63326341D01*
X109385270Y-63685630D01*
X109384931Y-64074663D01*
X103907362Y-64074663D01*
X104004327Y-63977698D01*
X104101000Y-63744309D01*
X104101000Y-63453750D01*
X103942250Y-63295000D01*
X102743000Y-63295000D01*
X102489000Y-63295000D01*
X102469000Y-63295000D01*
X102469000Y-63041000D01*
X102489000Y-63041000D01*
X102489000Y-62241750D01*
X102743000Y-62241750D01*
X102743000Y-63041000D01*
X103942250Y-63041000D01*
X104101000Y-62882250D01*
X104101000Y-62591691D01*
X104004327Y-62358302D01*
X103825699Y-62179673D01*
X103592310Y-62083000D01*
X102901750Y-62083000D01*
X102743000Y-62241750D01*
X102489000Y-62241750D01*
X102330250Y-62083000D01*
X102108000Y-62083000D01*
X102108000Y-61708059D01*
X102188341Y-61788540D01*
X102547630Y-61937730D01*
X102936663Y-61938069D01*
X103296212Y-61789507D01*
X103571540Y-61514659D01*
X103695071Y-61217163D01*
X106273431Y-61217163D01*
X106421993Y-61576712D01*
X106696841Y-61852040D01*
X107056130Y-62001230D01*
X107445163Y-62001569D01*
X107804712Y-61853007D01*
X108080040Y-61578159D01*
X108229230Y-61218870D01*
X108229569Y-60829837D01*
X108081007Y-60470288D01*
X107806159Y-60194960D01*
X107446870Y-60045770D01*
X107057837Y-60045431D01*
X106698288Y-60193993D01*
X106422960Y-60468841D01*
X106273770Y-60828130D01*
X106273431Y-61217163D01*
X103695071Y-61217163D01*
X103720730Y-61155370D01*
X103721032Y-60808476D01*
X103917441Y-60682090D01*
X104062431Y-60469890D01*
X104113440Y-60218000D01*
X104113440Y-59318000D01*
X104069162Y-59082683D01*
X103930090Y-58866559D01*
X103717890Y-58721569D01*
X103466000Y-58670560D01*
X102108000Y-58670560D01*
X102108000Y-58232663D01*
X107479931Y-58232663D01*
X107628493Y-58592212D01*
X107773485Y-58737457D01*
X107692960Y-58817841D01*
X107543770Y-59177130D01*
X107543431Y-59566163D01*
X107691993Y-59925712D01*
X107966841Y-60201040D01*
X108326130Y-60350230D01*
X108715163Y-60350569D01*
X109074712Y-60202007D01*
X109350040Y-59927159D01*
X109499230Y-59567870D01*
X109499569Y-59178837D01*
X109351007Y-58819288D01*
X109206015Y-58674043D01*
X109286540Y-58593659D01*
X109435730Y-58234370D01*
X109436069Y-57845337D01*
X109386208Y-57724663D01*
X110083431Y-57724663D01*
X110231993Y-58084212D01*
X110506841Y-58359540D01*
X110866130Y-58508730D01*
X110912060Y-58508770D01*
X110912060Y-59078500D01*
X110956338Y-59313817D01*
X111095410Y-59529941D01*
X111307610Y-59674931D01*
X111559500Y-59725940D01*
X116052568Y-59725940D01*
X116052431Y-59883663D01*
X116200993Y-60243212D01*
X116365137Y-60407642D01*
X116243270Y-60701130D01*
X116242931Y-61090163D01*
X116391493Y-61449712D01*
X116666341Y-61725040D01*
X117025630Y-61874230D01*
X117414663Y-61874569D01*
X117774212Y-61726007D01*
X118049540Y-61451159D01*
X118198730Y-61091870D01*
X118198947Y-60842691D01*
X124819000Y-60842691D01*
X124819000Y-61433250D01*
X124977750Y-61592000D01*
X126327000Y-61592000D01*
X126327000Y-60492750D01*
X126581000Y-60492750D01*
X126581000Y-61592000D01*
X127930250Y-61592000D01*
X128089000Y-61433250D01*
X128089000Y-60842691D01*
X127992327Y-60609302D01*
X127813699Y-60430673D01*
X127580310Y-60334000D01*
X126739750Y-60334000D01*
X126581000Y-60492750D01*
X126327000Y-60492750D01*
X126168250Y-60334000D01*
X125327690Y-60334000D01*
X125094301Y-60430673D01*
X124915673Y-60609302D01*
X124819000Y-60842691D01*
X118198947Y-60842691D01*
X118199069Y-60702837D01*
X118050507Y-60343288D01*
X117886363Y-60178858D01*
X118008230Y-59885370D01*
X118008569Y-59496337D01*
X117860007Y-59136788D01*
X117585159Y-58861460D01*
X117306940Y-58745933D01*
X117306940Y-56578500D01*
X117262662Y-56343183D01*
X117123590Y-56127059D01*
X116911390Y-55982069D01*
X116659500Y-55931060D01*
X111559500Y-55931060D01*
X111324183Y-55975338D01*
X111108059Y-56114410D01*
X110963069Y-56326610D01*
X110917229Y-56552974D01*
X110867837Y-56552931D01*
X110508288Y-56701493D01*
X110232960Y-56976341D01*
X110083770Y-57335630D01*
X110083431Y-57724663D01*
X109386208Y-57724663D01*
X109287507Y-57485788D01*
X109012659Y-57210460D01*
X108653370Y-57061270D01*
X108264337Y-57060931D01*
X107904788Y-57209493D01*
X107629460Y-57484341D01*
X107480270Y-57843630D01*
X107479931Y-58232663D01*
X102108000Y-58232663D01*
X102108000Y-57698675D01*
X102343118Y-57934204D01*
X102980573Y-58198899D01*
X103670799Y-58199501D01*
X104308715Y-57935919D01*
X104797204Y-57448282D01*
X105061899Y-56810827D01*
X105062501Y-56120601D01*
X104798919Y-55482685D01*
X104561649Y-55245000D01*
X126146658Y-55245000D01*
X125834796Y-55556318D01*
M02*
