G04 #@! TF.FileFunction,Copper,L3,Inr,Signal*
%FSLAX46Y46*%
G04 Gerber Fmt 4.6, Leading zero omitted, Abs format (unit mm)*
G04 Created by KiCad (PCBNEW 4.0.5) date 05/13/17 18:28:42*
%MOMM*%
%LPD*%
G01*
G04 APERTURE LIST*
%ADD10C,0.100000*%
%ADD11R,1.000000X1.000000*%
%ADD12O,1.000000X1.000000*%
%ADD13C,0.685800*%
%ADD14C,0.300000*%
G04 APERTURE END LIST*
D10*
D11*
X123825000Y-86741000D03*
D12*
X123825000Y-85471000D03*
X123825000Y-84201000D03*
X123825000Y-82931000D03*
X123825000Y-81661000D03*
D13*
X114681000Y-80708500D03*
X115951000Y-57467500D03*
X107188000Y-59753500D03*
X127127000Y-66929000D03*
X120269000Y-76708000D03*
X104648000Y-76454000D03*
X110426500Y-76771500D03*
X113220500Y-72580500D03*
X117538500Y-80772000D03*
X111442500Y-63182500D03*
X115633500Y-64135000D03*
X120586500Y-64135000D03*
X126238000Y-75184000D03*
X103822500Y-70929500D03*
X119634000Y-58483500D03*
X106489500Y-83693000D03*
X122999500Y-77216000D03*
X121856500Y-80137000D03*
X111315500Y-72644000D03*
X115125500Y-84709000D03*
X101917500Y-74612500D03*
X101981000Y-70802500D03*
X103124000Y-69659500D03*
X109093000Y-73469500D03*
X103251000Y-68516500D03*
X108013500Y-71628000D03*
X117475000Y-83439000D03*
X116522500Y-72580500D03*
X115633500Y-72580500D03*
X110934500Y-80772000D03*
X112712500Y-84518500D03*
X110744000Y-70739000D03*
X106553000Y-74295000D03*
X107823000Y-83566000D03*
X108013500Y-82677000D03*
X109029500Y-75184000D03*
X107886500Y-68643500D03*
X107950000Y-69596000D03*
X107886500Y-81534000D03*
X116205000Y-84772500D03*
X112268000Y-72644000D03*
X123317000Y-79248000D03*
X121031000Y-81280000D03*
X102743000Y-60960000D03*
X108521500Y-59372500D03*
X107823000Y-66675000D03*
X108458000Y-58039000D03*
X108013500Y-67691000D03*
X117030500Y-59690000D03*
X111061500Y-57531000D03*
X117221000Y-60896500D03*
X120586500Y-79819500D03*
X112141000Y-78041500D03*
X126111000Y-63119000D03*
X111760000Y-66738500D03*
X110871000Y-67437000D03*
X128397000Y-73152000D03*
X128143000Y-81153000D03*
X110807500Y-69850000D03*
X110363000Y-63881000D03*
X107251500Y-61023500D03*
X119951500Y-67691000D03*
X124714000Y-65532000D03*
D14*
X111315500Y-72644000D02*
X111315500Y-75882500D01*
X111315500Y-75882500D02*
X112903000Y-77470000D01*
X112903000Y-77470000D02*
X122745500Y-77470000D01*
X122745500Y-77470000D02*
X122999500Y-77216000D01*
X121856500Y-80137000D02*
X121856500Y-82296000D01*
X121856500Y-82296000D02*
X121539000Y-82613500D01*
X115125500Y-84709000D02*
X115887500Y-83947000D01*
X115887500Y-83947000D02*
X115887500Y-83375500D01*
X115887500Y-83375500D02*
X116649500Y-82613500D01*
X116649500Y-82613500D02*
X121539000Y-82613500D01*
X121539000Y-82613500D02*
X121856500Y-82613500D01*
X122364500Y-82931000D02*
X123825000Y-82931000D01*
X122047000Y-82613500D02*
X122364500Y-82931000D01*
X121856500Y-82613500D02*
X122047000Y-82613500D01*
X118110000Y-85471000D02*
X123825000Y-85471000D01*
X117602000Y-84836000D02*
X118110000Y-85471000D01*
X117538500Y-83502500D02*
X117602000Y-84836000D01*
X117475000Y-83439000D02*
X117538500Y-83502500D01*
X107188000Y-70739000D02*
X110744000Y-70739000D01*
X106553000Y-71374000D02*
X107188000Y-70739000D01*
X106553000Y-74295000D02*
X106553000Y-71374000D01*
X109029500Y-75184000D02*
X108712000Y-75057000D01*
X108712000Y-75057000D02*
X105981500Y-75057000D01*
X105981500Y-75057000D02*
X105156000Y-74231500D01*
X105156000Y-74231500D02*
X105156000Y-69278500D01*
X105156000Y-69278500D02*
X105791000Y-68643500D01*
X105791000Y-68643500D02*
X107886500Y-68643500D01*
X120777000Y-81280000D02*
X121031000Y-81280000D01*
X118745000Y-79248000D02*
X120777000Y-81280000D01*
X109347000Y-79248000D02*
X118745000Y-79248000D01*
X104521000Y-74422000D02*
X109347000Y-79248000D01*
X104521000Y-65405000D02*
X104521000Y-74422000D01*
X104902000Y-65024000D02*
X104521000Y-65405000D01*
X104902000Y-63119000D02*
X104902000Y-65024000D01*
X102743000Y-60960000D02*
X104902000Y-63119000D01*
X113220500Y-59690000D02*
X117030500Y-59690000D01*
X111061500Y-57531000D02*
X113220500Y-59690000D01*
X120586500Y-79819500D02*
X118808500Y-78041500D01*
X118808500Y-78041500D02*
X112141000Y-78041500D01*
X126047500Y-63055500D02*
X126111000Y-63119000D01*
X111760000Y-66738500D02*
X115443000Y-63055500D01*
X115443000Y-63055500D02*
X126047500Y-63055500D01*
X110871000Y-67437000D02*
X113157000Y-69215000D01*
X113157000Y-69215000D02*
X127000000Y-69215000D01*
X127508000Y-69723000D02*
X127000000Y-69215000D01*
X127889000Y-70104000D02*
X127508000Y-69723000D01*
X127889000Y-72644000D02*
X127889000Y-70104000D01*
X128397000Y-73152000D02*
X127889000Y-72644000D01*
X128143000Y-81153000D02*
X128143000Y-74168000D01*
X128143000Y-74168000D02*
X127000000Y-73025000D01*
X127000000Y-73025000D02*
X127000000Y-70485000D01*
X127000000Y-70485000D02*
X126619000Y-70104000D01*
X126619000Y-70104000D02*
X124142500Y-70104000D01*
X111061500Y-70104000D02*
X124142500Y-70104000D01*
X110807500Y-69850000D02*
X111061500Y-70104000D01*
M02*
