G04 #@! TF.FileFunction,Legend,Top*
%FSLAX46Y46*%
G04 Gerber Fmt 4.6, Leading zero omitted, Abs format (unit mm)*
G04 Created by KiCad (PCBNEW 4.0.5) date 05/13/17 18:28:42*
%MOMM*%
%LPD*%
G01*
G04 APERTURE LIST*
%ADD10C,0.100000*%
%ADD11C,0.200000*%
%ADD12C,0.125000*%
%ADD13C,0.150000*%
%ADD14C,0.120000*%
%ADD15C,0.080000*%
G04 APERTURE END LIST*
D10*
D11*
X116403317Y-71945500D02*
G75*
G03X116403317Y-71945500I-261817J0D01*
G01*
X119705317Y-61912500D02*
G75*
G03X119705317Y-61912500I-261817J0D01*
G01*
D12*
X120529500Y-86847357D02*
X120986643Y-86847357D01*
X120758072Y-87075929D02*
X120758072Y-86618786D01*
X121215214Y-86475929D02*
X121586643Y-86475929D01*
X121386643Y-86704500D01*
X121472357Y-86704500D01*
X121529500Y-86733071D01*
X121558071Y-86761643D01*
X121586643Y-86818786D01*
X121586643Y-86961643D01*
X121558071Y-87018786D01*
X121529500Y-87047357D01*
X121472357Y-87075929D01*
X121300929Y-87075929D01*
X121243786Y-87047357D01*
X121215214Y-87018786D01*
X121843786Y-87018786D02*
X121872358Y-87047357D01*
X121843786Y-87075929D01*
X121815215Y-87047357D01*
X121843786Y-87018786D01*
X121843786Y-87075929D01*
X122072357Y-86475929D02*
X122443786Y-86475929D01*
X122243786Y-86704500D01*
X122329500Y-86704500D01*
X122386643Y-86733071D01*
X122415214Y-86761643D01*
X122443786Y-86818786D01*
X122443786Y-86961643D01*
X122415214Y-87018786D01*
X122386643Y-87047357D01*
X122329500Y-87075929D01*
X122158072Y-87075929D01*
X122100929Y-87047357D01*
X122072357Y-87018786D01*
X122615215Y-86475929D02*
X122815215Y-87075929D01*
X123015215Y-86475929D01*
X120864429Y-85713857D02*
X120950143Y-85742429D01*
X121093000Y-85742429D01*
X121150143Y-85713857D01*
X121178714Y-85685286D01*
X121207286Y-85628143D01*
X121207286Y-85571000D01*
X121178714Y-85513857D01*
X121150143Y-85485286D01*
X121093000Y-85456714D01*
X120978714Y-85428143D01*
X120921572Y-85399571D01*
X120893000Y-85371000D01*
X120864429Y-85313857D01*
X120864429Y-85256714D01*
X120893000Y-85199571D01*
X120921572Y-85171000D01*
X120978714Y-85142429D01*
X121121572Y-85142429D01*
X121207286Y-85171000D01*
X121464429Y-85742429D02*
X121464429Y-85142429D01*
X121607286Y-85142429D01*
X121693001Y-85171000D01*
X121750143Y-85228143D01*
X121778715Y-85285286D01*
X121807286Y-85399571D01*
X121807286Y-85485286D01*
X121778715Y-85599571D01*
X121750143Y-85656714D01*
X121693001Y-85713857D01*
X121607286Y-85742429D01*
X121464429Y-85742429D01*
X122064429Y-85742429D02*
X122064429Y-85142429D01*
X122464429Y-85142429D02*
X122578715Y-85142429D01*
X122635857Y-85171000D01*
X122693000Y-85228143D01*
X122721572Y-85342429D01*
X122721572Y-85542429D01*
X122693000Y-85656714D01*
X122635857Y-85713857D01*
X122578715Y-85742429D01*
X122464429Y-85742429D01*
X122407286Y-85713857D01*
X122350143Y-85656714D01*
X122321572Y-85542429D01*
X122321572Y-85342429D01*
X122350143Y-85228143D01*
X122407286Y-85171000D01*
X122464429Y-85142429D01*
X125477715Y-84316857D02*
X125563429Y-84345429D01*
X125706286Y-84345429D01*
X125763429Y-84316857D01*
X125792000Y-84288286D01*
X125820572Y-84231143D01*
X125820572Y-84174000D01*
X125792000Y-84116857D01*
X125763429Y-84088286D01*
X125706286Y-84059714D01*
X125592000Y-84031143D01*
X125534858Y-84002571D01*
X125506286Y-83974000D01*
X125477715Y-83916857D01*
X125477715Y-83859714D01*
X125506286Y-83802571D01*
X125534858Y-83774000D01*
X125592000Y-83745429D01*
X125734858Y-83745429D01*
X125820572Y-83774000D01*
X126420572Y-84288286D02*
X126392001Y-84316857D01*
X126306287Y-84345429D01*
X126249144Y-84345429D01*
X126163429Y-84316857D01*
X126106287Y-84259714D01*
X126077715Y-84202571D01*
X126049144Y-84088286D01*
X126049144Y-84002571D01*
X126077715Y-83888286D01*
X126106287Y-83831143D01*
X126163429Y-83774000D01*
X126249144Y-83745429D01*
X126306287Y-83745429D01*
X126392001Y-83774000D01*
X126420572Y-83802571D01*
X126963429Y-84345429D02*
X126677715Y-84345429D01*
X126677715Y-83745429D01*
X127163429Y-84345429D02*
X127163429Y-83745429D01*
X127506286Y-84345429D02*
X127249143Y-84002571D01*
X127506286Y-83745429D02*
X127163429Y-84088286D01*
X125718928Y-83202429D02*
X125518928Y-82916714D01*
X125376071Y-83202429D02*
X125376071Y-82602429D01*
X125604643Y-82602429D01*
X125661785Y-82631000D01*
X125690357Y-82659571D01*
X125718928Y-82716714D01*
X125718928Y-82802429D01*
X125690357Y-82859571D01*
X125661785Y-82888143D01*
X125604643Y-82916714D01*
X125376071Y-82916714D01*
X125947500Y-83173857D02*
X126033214Y-83202429D01*
X126176071Y-83202429D01*
X126233214Y-83173857D01*
X126261785Y-83145286D01*
X126290357Y-83088143D01*
X126290357Y-83031000D01*
X126261785Y-82973857D01*
X126233214Y-82945286D01*
X126176071Y-82916714D01*
X126061785Y-82888143D01*
X126004643Y-82859571D01*
X125976071Y-82831000D01*
X125947500Y-82773857D01*
X125947500Y-82716714D01*
X125976071Y-82659571D01*
X126004643Y-82631000D01*
X126061785Y-82602429D01*
X126204643Y-82602429D01*
X126290357Y-82631000D01*
X126461786Y-82602429D02*
X126804643Y-82602429D01*
X126633214Y-83202429D02*
X126633214Y-82602429D01*
X125526858Y-81424500D02*
X125469715Y-81395929D01*
X125384001Y-81395929D01*
X125298286Y-81424500D01*
X125241144Y-81481643D01*
X125212572Y-81538786D01*
X125184001Y-81653071D01*
X125184001Y-81738786D01*
X125212572Y-81853071D01*
X125241144Y-81910214D01*
X125298286Y-81967357D01*
X125384001Y-81995929D01*
X125441144Y-81995929D01*
X125526858Y-81967357D01*
X125555429Y-81938786D01*
X125555429Y-81738786D01*
X125441144Y-81738786D01*
X125812572Y-81995929D02*
X125812572Y-81395929D01*
X126155429Y-81995929D01*
X126155429Y-81395929D01*
X126441143Y-81995929D02*
X126441143Y-81395929D01*
X126584000Y-81395929D01*
X126669715Y-81424500D01*
X126726857Y-81481643D01*
X126755429Y-81538786D01*
X126784000Y-81653071D01*
X126784000Y-81738786D01*
X126755429Y-81853071D01*
X126726857Y-81910214D01*
X126669715Y-81967357D01*
X126584000Y-81995929D01*
X126441143Y-81995929D01*
D11*
X121729500Y-70739000D02*
G75*
G03X121729500Y-70739000I-254000J0D01*
G01*
X107640317Y-59245500D02*
G75*
G03X107640317Y-59245500I-261817J0D01*
G01*
D13*
X117800000Y-82123000D02*
X118900000Y-82123000D01*
X118900000Y-82123000D02*
X118900000Y-81823000D01*
X118900000Y-81823000D02*
X120100000Y-81823000D01*
X120100000Y-81823000D02*
X120100000Y-85623000D01*
X120100000Y-85623000D02*
X119200000Y-85623000D01*
X119200000Y-85623000D02*
X119200000Y-86823000D01*
X119200000Y-86823000D02*
X111500000Y-86823000D01*
X111500000Y-86823000D02*
X111500000Y-85723000D01*
X111500000Y-85723000D02*
X110600000Y-85723000D01*
X110600000Y-85723000D02*
X110600000Y-81823000D01*
X110600000Y-81823000D02*
X111900000Y-81823000D01*
X111900000Y-81823000D02*
X111900000Y-82123000D01*
X111900000Y-82123000D02*
X117800000Y-82123000D01*
D14*
X119689500Y-64364500D02*
X118689500Y-64364500D01*
X118689500Y-66064500D02*
X119689500Y-66064500D01*
X119595000Y-76255500D02*
X119595000Y-75255500D01*
X117895000Y-75255500D02*
X117895000Y-76255500D01*
X116070000Y-76302500D02*
X115070000Y-76302500D01*
X115070000Y-78002500D02*
X116070000Y-78002500D01*
X121229500Y-78066000D02*
X122229500Y-78066000D01*
X122229500Y-76366000D02*
X121229500Y-76366000D01*
X101829500Y-80526000D02*
X101829500Y-81526000D01*
X103529500Y-81526000D02*
X103529500Y-80526000D01*
X107339500Y-81526000D02*
X107339500Y-80526000D01*
X105639500Y-80526000D02*
X105639500Y-81526000D01*
X124468000Y-74637000D02*
X125468000Y-74637000D01*
X125468000Y-72937000D02*
X124468000Y-72937000D01*
X124468000Y-72160500D02*
X125468000Y-72160500D01*
X125468000Y-70460500D02*
X124468000Y-70460500D01*
X112307000Y-61476000D02*
X112307000Y-62476000D01*
X114007000Y-62476000D02*
X114007000Y-61476000D01*
X116705000Y-78652000D02*
X115705000Y-78652000D01*
X115705000Y-80352000D02*
X116705000Y-80352000D01*
X105434500Y-81526000D02*
X105434500Y-80526000D01*
X103734500Y-80526000D02*
X103734500Y-81526000D01*
X125215000Y-86106000D02*
X125215000Y-80906000D01*
X125215000Y-80906000D02*
X122435000Y-80906000D01*
X122435000Y-80906000D02*
X122435000Y-86106000D01*
X122435000Y-86106000D02*
X125215000Y-86106000D01*
X125215000Y-86741000D02*
X125215000Y-87496000D01*
X125215000Y-87496000D02*
X123825000Y-87496000D01*
X122653500Y-78368000D02*
X123853500Y-78368000D01*
X123853500Y-80128000D02*
X122653500Y-80128000D01*
X114271500Y-55381000D02*
X115471500Y-55381000D01*
X115471500Y-57141000D02*
X114271500Y-57141000D01*
X110074000Y-57077500D02*
X108874000Y-57077500D01*
X108874000Y-55317500D02*
X110074000Y-55317500D01*
X109846000Y-77505000D02*
X109846000Y-78705000D01*
X108086000Y-78705000D02*
X108086000Y-77505000D01*
X103811500Y-78127500D02*
X105611500Y-78127500D01*
X105611500Y-74907500D02*
X103161500Y-74907500D01*
D13*
X117290000Y-73284500D02*
X117290000Y-73059500D01*
X110040000Y-73284500D02*
X110040000Y-72959500D01*
X110040000Y-66034500D02*
X110040000Y-66359500D01*
X117290000Y-66034500D02*
X117290000Y-66359500D01*
X117290000Y-73284500D02*
X116965000Y-73284500D01*
X117290000Y-66034500D02*
X116965000Y-66034500D01*
X110040000Y-66034500D02*
X110365000Y-66034500D01*
X110040000Y-73284500D02*
X110365000Y-73284500D01*
X117290000Y-73059500D02*
X118715000Y-73059500D01*
X106510000Y-57813500D02*
X106510000Y-57863500D01*
X110660000Y-57813500D02*
X110660000Y-57958500D01*
X110660000Y-62963500D02*
X110660000Y-62818500D01*
X106510000Y-62963500D02*
X106510000Y-62818500D01*
X106510000Y-57813500D02*
X110660000Y-57813500D01*
X106510000Y-62963500D02*
X110660000Y-62963500D01*
X106510000Y-57863500D02*
X105110000Y-57863500D01*
X120502500Y-62836500D02*
X120502500Y-62786500D01*
X116352500Y-62836500D02*
X116352500Y-62691500D01*
X116352500Y-57686500D02*
X116352500Y-57831500D01*
X120502500Y-57686500D02*
X120502500Y-57831500D01*
X120502500Y-62836500D02*
X116352500Y-62836500D01*
X120502500Y-57686500D02*
X116352500Y-57686500D01*
X120502500Y-62786500D02*
X121902500Y-62786500D01*
D14*
X112793000Y-78805000D02*
X112793000Y-76905000D01*
X110473000Y-77405000D02*
X110473000Y-78805000D01*
X120525500Y-73067000D02*
X120525500Y-71967000D01*
X122425500Y-73067000D02*
X122425500Y-71967000D01*
X120575500Y-74467000D02*
X122375500Y-74467000D01*
X122367000Y-62018000D02*
X122367000Y-60918000D01*
X124267000Y-62018000D02*
X124267000Y-60918000D01*
X122417000Y-63418000D02*
X124217000Y-63418000D01*
X124458500Y-68411500D02*
X125858500Y-68411500D01*
X125858500Y-68411500D02*
X125858500Y-65611500D01*
X124458500Y-68411500D02*
X124458500Y-65611500D01*
X127943500Y-66392500D02*
X127943500Y-67592500D01*
X126183500Y-67592500D02*
X126183500Y-66392500D01*
D13*
X114577905Y-85796381D02*
X114577905Y-84796381D01*
X114958858Y-84796381D01*
X115054096Y-84844000D01*
X115101715Y-84891619D01*
X115149334Y-84986857D01*
X115149334Y-85129714D01*
X115101715Y-85224952D01*
X115054096Y-85272571D01*
X114958858Y-85320190D01*
X114577905Y-85320190D01*
X115482667Y-84796381D02*
X116101715Y-84796381D01*
X115768381Y-85177333D01*
X115911239Y-85177333D01*
X116006477Y-85224952D01*
X116054096Y-85272571D01*
X116101715Y-85367810D01*
X116101715Y-85605905D01*
X116054096Y-85701143D01*
X116006477Y-85748762D01*
X115911239Y-85796381D01*
X115625524Y-85796381D01*
X115530286Y-85748762D01*
X115482667Y-85701143D01*
X122007334Y-65698643D02*
X121959715Y-65746262D01*
X121816858Y-65793881D01*
X121721620Y-65793881D01*
X121578762Y-65746262D01*
X121483524Y-65651024D01*
X121435905Y-65555786D01*
X121388286Y-65365310D01*
X121388286Y-65222452D01*
X121435905Y-65031976D01*
X121483524Y-64936738D01*
X121578762Y-64841500D01*
X121721620Y-64793881D01*
X121816858Y-64793881D01*
X121959715Y-64841500D01*
X122007334Y-64889119D01*
X122959715Y-65793881D02*
X122388286Y-65793881D01*
X122674000Y-65793881D02*
X122674000Y-64793881D01*
X122578762Y-64936738D01*
X122483524Y-65031976D01*
X122388286Y-65079595D01*
X120626143Y-75922166D02*
X120673762Y-75969785D01*
X120721381Y-76112642D01*
X120721381Y-76207880D01*
X120673762Y-76350738D01*
X120578524Y-76445976D01*
X120483286Y-76493595D01*
X120292810Y-76541214D01*
X120149952Y-76541214D01*
X119959476Y-76493595D01*
X119864238Y-76445976D01*
X119769000Y-76350738D01*
X119721381Y-76207880D01*
X119721381Y-76112642D01*
X119769000Y-75969785D01*
X119816619Y-75922166D01*
X119816619Y-75541214D02*
X119769000Y-75493595D01*
X119721381Y-75398357D01*
X119721381Y-75160261D01*
X119769000Y-75065023D01*
X119816619Y-75017404D01*
X119911857Y-74969785D01*
X120007095Y-74969785D01*
X120149952Y-75017404D01*
X120721381Y-75588833D01*
X120721381Y-74969785D01*
X115657334Y-75985643D02*
X115609715Y-76033262D01*
X115466858Y-76080881D01*
X115371620Y-76080881D01*
X115228762Y-76033262D01*
X115133524Y-75938024D01*
X115085905Y-75842786D01*
X115038286Y-75652310D01*
X115038286Y-75509452D01*
X115085905Y-75318976D01*
X115133524Y-75223738D01*
X115228762Y-75128500D01*
X115371620Y-75080881D01*
X115466858Y-75080881D01*
X115609715Y-75128500D01*
X115657334Y-75176119D01*
X115990667Y-75080881D02*
X116609715Y-75080881D01*
X116276381Y-75461833D01*
X116419239Y-75461833D01*
X116514477Y-75509452D01*
X116562096Y-75557071D01*
X116609715Y-75652310D01*
X116609715Y-75890405D01*
X116562096Y-75985643D01*
X116514477Y-76033262D01*
X116419239Y-76080881D01*
X116133524Y-76080881D01*
X116038286Y-76033262D01*
X115990667Y-75985643D01*
X122769334Y-76239643D02*
X122721715Y-76287262D01*
X122578858Y-76334881D01*
X122483620Y-76334881D01*
X122340762Y-76287262D01*
X122245524Y-76192024D01*
X122197905Y-76096786D01*
X122150286Y-75906310D01*
X122150286Y-75763452D01*
X122197905Y-75572976D01*
X122245524Y-75477738D01*
X122340762Y-75382500D01*
X122483620Y-75334881D01*
X122578858Y-75334881D01*
X122721715Y-75382500D01*
X122769334Y-75430119D01*
X123626477Y-75668214D02*
X123626477Y-76334881D01*
X123388381Y-75287262D02*
X123150286Y-76001548D01*
X123769334Y-76001548D01*
X103100143Y-84367666D02*
X103147762Y-84415285D01*
X103195381Y-84558142D01*
X103195381Y-84653380D01*
X103147762Y-84796238D01*
X103052524Y-84891476D01*
X102957286Y-84939095D01*
X102766810Y-84986714D01*
X102623952Y-84986714D01*
X102433476Y-84939095D01*
X102338238Y-84891476D01*
X102243000Y-84796238D01*
X102195381Y-84653380D01*
X102195381Y-84558142D01*
X102243000Y-84415285D01*
X102290619Y-84367666D01*
X102195381Y-83462904D02*
X102195381Y-83939095D01*
X102671571Y-83986714D01*
X102623952Y-83939095D01*
X102576333Y-83843857D01*
X102576333Y-83605761D01*
X102623952Y-83510523D01*
X102671571Y-83462904D01*
X102766810Y-83415285D01*
X103004905Y-83415285D01*
X103100143Y-83462904D01*
X103147762Y-83510523D01*
X103195381Y-83605761D01*
X103195381Y-83843857D01*
X103147762Y-83939095D01*
X103100143Y-83986714D01*
X106846643Y-85256666D02*
X106894262Y-85304285D01*
X106941881Y-85447142D01*
X106941881Y-85542380D01*
X106894262Y-85685238D01*
X106799024Y-85780476D01*
X106703786Y-85828095D01*
X106513310Y-85875714D01*
X106370452Y-85875714D01*
X106179976Y-85828095D01*
X106084738Y-85780476D01*
X105989500Y-85685238D01*
X105941881Y-85542380D01*
X105941881Y-85447142D01*
X105989500Y-85304285D01*
X106037119Y-85256666D01*
X105941881Y-84399523D02*
X105941881Y-84590000D01*
X105989500Y-84685238D01*
X106037119Y-84732857D01*
X106179976Y-84828095D01*
X106370452Y-84875714D01*
X106751405Y-84875714D01*
X106846643Y-84828095D01*
X106894262Y-84780476D01*
X106941881Y-84685238D01*
X106941881Y-84494761D01*
X106894262Y-84399523D01*
X106846643Y-84351904D01*
X106751405Y-84304285D01*
X106513310Y-84304285D01*
X106418071Y-84351904D01*
X106370452Y-84399523D01*
X106322833Y-84494761D01*
X106322833Y-84685238D01*
X106370452Y-84780476D01*
X106418071Y-84828095D01*
X106513310Y-84875714D01*
X127849334Y-73953643D02*
X127801715Y-74001262D01*
X127658858Y-74048881D01*
X127563620Y-74048881D01*
X127420762Y-74001262D01*
X127325524Y-73906024D01*
X127277905Y-73810786D01*
X127230286Y-73620310D01*
X127230286Y-73477452D01*
X127277905Y-73286976D01*
X127325524Y-73191738D01*
X127420762Y-73096500D01*
X127563620Y-73048881D01*
X127658858Y-73048881D01*
X127801715Y-73096500D01*
X127849334Y-73144119D01*
X128182667Y-73048881D02*
X128849334Y-73048881D01*
X128420762Y-74048881D01*
X127849334Y-71731143D02*
X127801715Y-71778762D01*
X127658858Y-71826381D01*
X127563620Y-71826381D01*
X127420762Y-71778762D01*
X127325524Y-71683524D01*
X127277905Y-71588286D01*
X127230286Y-71397810D01*
X127230286Y-71254952D01*
X127277905Y-71064476D01*
X127325524Y-70969238D01*
X127420762Y-70874000D01*
X127563620Y-70826381D01*
X127658858Y-70826381D01*
X127801715Y-70874000D01*
X127849334Y-70921619D01*
X128420762Y-71254952D02*
X128325524Y-71207333D01*
X128277905Y-71159714D01*
X128230286Y-71064476D01*
X128230286Y-71016857D01*
X128277905Y-70921619D01*
X128325524Y-70874000D01*
X128420762Y-70826381D01*
X128611239Y-70826381D01*
X128706477Y-70874000D01*
X128754096Y-70921619D01*
X128801715Y-71016857D01*
X128801715Y-71064476D01*
X128754096Y-71159714D01*
X128706477Y-71207333D01*
X128611239Y-71254952D01*
X128420762Y-71254952D01*
X128325524Y-71302571D01*
X128277905Y-71350190D01*
X128230286Y-71445429D01*
X128230286Y-71635905D01*
X128277905Y-71731143D01*
X128325524Y-71778762D01*
X128420762Y-71826381D01*
X128611239Y-71826381D01*
X128706477Y-71778762D01*
X128754096Y-71731143D01*
X128801715Y-71635905D01*
X128801715Y-71445429D01*
X128754096Y-71350190D01*
X128706477Y-71302571D01*
X128611239Y-71254952D01*
X113577643Y-58967666D02*
X113625262Y-59015285D01*
X113672881Y-59158142D01*
X113672881Y-59253380D01*
X113625262Y-59396238D01*
X113530024Y-59491476D01*
X113434786Y-59539095D01*
X113244310Y-59586714D01*
X113101452Y-59586714D01*
X112910976Y-59539095D01*
X112815738Y-59491476D01*
X112720500Y-59396238D01*
X112672881Y-59253380D01*
X112672881Y-59158142D01*
X112720500Y-59015285D01*
X112768119Y-58967666D01*
X113672881Y-58491476D02*
X113672881Y-58301000D01*
X113625262Y-58205761D01*
X113577643Y-58158142D01*
X113434786Y-58062904D01*
X113244310Y-58015285D01*
X112863357Y-58015285D01*
X112768119Y-58062904D01*
X112720500Y-58110523D01*
X112672881Y-58205761D01*
X112672881Y-58396238D01*
X112720500Y-58491476D01*
X112768119Y-58539095D01*
X112863357Y-58586714D01*
X113101452Y-58586714D01*
X113196690Y-58539095D01*
X113244310Y-58491476D01*
X113291929Y-58396238D01*
X113291929Y-58205761D01*
X113244310Y-58110523D01*
X113196690Y-58062904D01*
X113101452Y-58015285D01*
X119118143Y-79986143D02*
X119070524Y-80033762D01*
X118927667Y-80081381D01*
X118832429Y-80081381D01*
X118689571Y-80033762D01*
X118594333Y-79938524D01*
X118546714Y-79843286D01*
X118499095Y-79652810D01*
X118499095Y-79509952D01*
X118546714Y-79319476D01*
X118594333Y-79224238D01*
X118689571Y-79129000D01*
X118832429Y-79081381D01*
X118927667Y-79081381D01*
X119070524Y-79129000D01*
X119118143Y-79176619D01*
X120070524Y-80081381D02*
X119499095Y-80081381D01*
X119784809Y-80081381D02*
X119784809Y-79081381D01*
X119689571Y-79224238D01*
X119594333Y-79319476D01*
X119499095Y-79367095D01*
X121022905Y-80081381D02*
X120451476Y-80081381D01*
X120737190Y-80081381D02*
X120737190Y-79081381D01*
X120641952Y-79224238D01*
X120546714Y-79319476D01*
X120451476Y-79367095D01*
X105259143Y-85224857D02*
X105306762Y-85272476D01*
X105354381Y-85415333D01*
X105354381Y-85510571D01*
X105306762Y-85653429D01*
X105211524Y-85748667D01*
X105116286Y-85796286D01*
X104925810Y-85843905D01*
X104782952Y-85843905D01*
X104592476Y-85796286D01*
X104497238Y-85748667D01*
X104402000Y-85653429D01*
X104354381Y-85510571D01*
X104354381Y-85415333D01*
X104402000Y-85272476D01*
X104449619Y-85224857D01*
X105354381Y-84272476D02*
X105354381Y-84843905D01*
X105354381Y-84558191D02*
X104354381Y-84558191D01*
X104497238Y-84653429D01*
X104592476Y-84748667D01*
X104640095Y-84843905D01*
X104687714Y-83415333D02*
X105354381Y-83415333D01*
X104306762Y-83653429D02*
X105021048Y-83891524D01*
X105021048Y-83272476D01*
X106259381Y-69484833D02*
X106973667Y-69484833D01*
X107116524Y-69532453D01*
X107211762Y-69627691D01*
X107259381Y-69770548D01*
X107259381Y-69865786D01*
X107259381Y-68484833D02*
X107259381Y-69056262D01*
X107259381Y-68770548D02*
X106259381Y-68770548D01*
X106402238Y-68865786D01*
X106497476Y-68961024D01*
X106545095Y-69056262D01*
D15*
X103454238Y-70158000D02*
X103416143Y-70138952D01*
X103359000Y-70138952D01*
X103301857Y-70158000D01*
X103263762Y-70196095D01*
X103244714Y-70234190D01*
X103225666Y-70310381D01*
X103225666Y-70367524D01*
X103244714Y-70443714D01*
X103263762Y-70481810D01*
X103301857Y-70519905D01*
X103359000Y-70538952D01*
X103397095Y-70538952D01*
X103454238Y-70519905D01*
X103473286Y-70500857D01*
X103473286Y-70367524D01*
X103397095Y-70367524D01*
X103644714Y-70538952D02*
X103644714Y-70138952D01*
X103873286Y-70538952D01*
X103873286Y-70138952D01*
X104063762Y-70538952D02*
X104063762Y-70138952D01*
X104159000Y-70138952D01*
X104216143Y-70158000D01*
X104254238Y-70196095D01*
X104273286Y-70234190D01*
X104292334Y-70310381D01*
X104292334Y-70367524D01*
X104273286Y-70443714D01*
X104254238Y-70481810D01*
X104216143Y-70519905D01*
X104159000Y-70538952D01*
X104063762Y-70538952D01*
X103559000Y-69903952D02*
X103559000Y-69503952D01*
X103749476Y-69903952D02*
X103749476Y-69503952D01*
X103844714Y-69503952D01*
X103901857Y-69523000D01*
X103939952Y-69561095D01*
X103959000Y-69599190D01*
X103978048Y-69675381D01*
X103978048Y-69732524D01*
X103959000Y-69808714D01*
X103939952Y-69846810D01*
X103901857Y-69884905D01*
X103844714Y-69903952D01*
X103749476Y-69903952D01*
X103533619Y-69268952D02*
X103533619Y-68868952D01*
X103628857Y-68868952D01*
X103686000Y-68888000D01*
X103724095Y-68926095D01*
X103743143Y-68964190D01*
X103762191Y-69040381D01*
X103762191Y-69097524D01*
X103743143Y-69173714D01*
X103724095Y-69211810D01*
X103686000Y-69249905D01*
X103628857Y-69268952D01*
X103533619Y-69268952D01*
X103933619Y-69116571D02*
X104238381Y-69116571D01*
X104086000Y-69268952D02*
X104086000Y-68964190D01*
X103533619Y-68633952D02*
X103533619Y-68233952D01*
X103628857Y-68233952D01*
X103686000Y-68253000D01*
X103724095Y-68291095D01*
X103743143Y-68329190D01*
X103762191Y-68405381D01*
X103762191Y-68462524D01*
X103743143Y-68538714D01*
X103724095Y-68576810D01*
X103686000Y-68614905D01*
X103628857Y-68633952D01*
X103533619Y-68633952D01*
X103933619Y-68481571D02*
X104238381Y-68481571D01*
X102771667Y-67598952D02*
X102905001Y-67998952D01*
X103038334Y-67598952D01*
X103305000Y-67789429D02*
X103362143Y-67808476D01*
X103381191Y-67827524D01*
X103400239Y-67865619D01*
X103400239Y-67922762D01*
X103381191Y-67960857D01*
X103362143Y-67979905D01*
X103324048Y-67998952D01*
X103171667Y-67998952D01*
X103171667Y-67598952D01*
X103305000Y-67598952D01*
X103343096Y-67618000D01*
X103362143Y-67637048D01*
X103381191Y-67675143D01*
X103381191Y-67713238D01*
X103362143Y-67751333D01*
X103343096Y-67770381D01*
X103305000Y-67789429D01*
X103171667Y-67789429D01*
X103571667Y-67598952D02*
X103571667Y-67922762D01*
X103590715Y-67960857D01*
X103609762Y-67979905D01*
X103647858Y-67998952D01*
X103724048Y-67998952D01*
X103762143Y-67979905D01*
X103781191Y-67960857D01*
X103800239Y-67922762D01*
X103800239Y-67598952D01*
X103971667Y-67979905D02*
X104028810Y-67998952D01*
X104124048Y-67998952D01*
X104162144Y-67979905D01*
X104181191Y-67960857D01*
X104200239Y-67922762D01*
X104200239Y-67884667D01*
X104181191Y-67846571D01*
X104162144Y-67827524D01*
X104124048Y-67808476D01*
X104047858Y-67789429D01*
X104009763Y-67770381D01*
X103990715Y-67751333D01*
X103971667Y-67713238D01*
X103971667Y-67675143D01*
X103990715Y-67637048D01*
X104009763Y-67618000D01*
X104047858Y-67598952D01*
X104143096Y-67598952D01*
X104200239Y-67618000D01*
D13*
X121054881Y-84216833D02*
X121769167Y-84216833D01*
X121912024Y-84264453D01*
X122007262Y-84359691D01*
X122054881Y-84502548D01*
X122054881Y-84597786D01*
X121150119Y-83788262D02*
X121102500Y-83740643D01*
X121054881Y-83645405D01*
X121054881Y-83407309D01*
X121102500Y-83312071D01*
X121150119Y-83264452D01*
X121245357Y-83216833D01*
X121340595Y-83216833D01*
X121483452Y-83264452D01*
X122054881Y-83835881D01*
X122054881Y-83216833D01*
X124737834Y-78176381D02*
X124404500Y-77700190D01*
X124166405Y-78176381D02*
X124166405Y-77176381D01*
X124547358Y-77176381D01*
X124642596Y-77224000D01*
X124690215Y-77271619D01*
X124737834Y-77366857D01*
X124737834Y-77509714D01*
X124690215Y-77604952D01*
X124642596Y-77652571D01*
X124547358Y-77700190D01*
X124166405Y-77700190D01*
X125690215Y-78176381D02*
X125118786Y-78176381D01*
X125404500Y-78176381D02*
X125404500Y-77176381D01*
X125309262Y-77319238D01*
X125214024Y-77414476D01*
X125118786Y-77462095D01*
X118498881Y-56427666D02*
X118022690Y-56761000D01*
X118498881Y-56999095D02*
X117498881Y-56999095D01*
X117498881Y-56618142D01*
X117546500Y-56522904D01*
X117594119Y-56475285D01*
X117689357Y-56427666D01*
X117832214Y-56427666D01*
X117927452Y-56475285D01*
X117975071Y-56522904D01*
X118022690Y-56618142D01*
X118022690Y-56999095D01*
X117594119Y-56046714D02*
X117546500Y-55999095D01*
X117498881Y-55903857D01*
X117498881Y-55665761D01*
X117546500Y-55570523D01*
X117594119Y-55522904D01*
X117689357Y-55475285D01*
X117784595Y-55475285D01*
X117927452Y-55522904D01*
X118498881Y-56094333D01*
X118498881Y-55475285D01*
X107005381Y-56300666D02*
X106529190Y-56634000D01*
X107005381Y-56872095D02*
X106005381Y-56872095D01*
X106005381Y-56491142D01*
X106053000Y-56395904D01*
X106100619Y-56348285D01*
X106195857Y-56300666D01*
X106338714Y-56300666D01*
X106433952Y-56348285D01*
X106481571Y-56395904D01*
X106529190Y-56491142D01*
X106529190Y-56872095D01*
X106005381Y-55967333D02*
X106005381Y-55348285D01*
X106386333Y-55681619D01*
X106386333Y-55538761D01*
X106433952Y-55443523D01*
X106481571Y-55395904D01*
X106576810Y-55348285D01*
X106814905Y-55348285D01*
X106910143Y-55395904D01*
X106957762Y-55443523D01*
X107005381Y-55538761D01*
X107005381Y-55824476D01*
X106957762Y-55919714D01*
X106910143Y-55967333D01*
X109608881Y-81446666D02*
X109132690Y-81780000D01*
X109608881Y-82018095D02*
X108608881Y-82018095D01*
X108608881Y-81637142D01*
X108656500Y-81541904D01*
X108704119Y-81494285D01*
X108799357Y-81446666D01*
X108942214Y-81446666D01*
X109037452Y-81494285D01*
X109085071Y-81541904D01*
X109132690Y-81637142D01*
X109132690Y-82018095D01*
X108608881Y-80541904D02*
X108608881Y-81018095D01*
X109085071Y-81065714D01*
X109037452Y-81018095D01*
X108989833Y-80922857D01*
X108989833Y-80684761D01*
X109037452Y-80589523D01*
X109085071Y-80541904D01*
X109180310Y-80494285D01*
X109418405Y-80494285D01*
X109513643Y-80541904D01*
X109561262Y-80589523D01*
X109608881Y-80684761D01*
X109608881Y-80922857D01*
X109561262Y-81018095D01*
X109513643Y-81065714D01*
X106576881Y-77279405D02*
X107386405Y-77279405D01*
X107481643Y-77231786D01*
X107529262Y-77184167D01*
X107576881Y-77088929D01*
X107576881Y-76898452D01*
X107529262Y-76803214D01*
X107481643Y-76755595D01*
X107386405Y-76707976D01*
X106576881Y-76707976D01*
X107576881Y-75707976D02*
X107576881Y-76279405D01*
X107576881Y-75993691D02*
X106576881Y-75993691D01*
X106719738Y-76088929D01*
X106814976Y-76184167D01*
X106862595Y-76279405D01*
X112839595Y-69111881D02*
X112839595Y-69921405D01*
X112887214Y-70016643D01*
X112934833Y-70064262D01*
X113030071Y-70111881D01*
X113220548Y-70111881D01*
X113315786Y-70064262D01*
X113363405Y-70016643D01*
X113411024Y-69921405D01*
X113411024Y-69111881D01*
X113839595Y-69207119D02*
X113887214Y-69159500D01*
X113982452Y-69111881D01*
X114220548Y-69111881D01*
X114315786Y-69159500D01*
X114363405Y-69207119D01*
X114411024Y-69302357D01*
X114411024Y-69397595D01*
X114363405Y-69540452D01*
X113791976Y-70111881D01*
X114411024Y-70111881D01*
X107823095Y-59777381D02*
X107823095Y-60586905D01*
X107870714Y-60682143D01*
X107918333Y-60729762D01*
X108013571Y-60777381D01*
X108204048Y-60777381D01*
X108299286Y-60729762D01*
X108346905Y-60682143D01*
X108394524Y-60586905D01*
X108394524Y-59777381D01*
X108775476Y-59777381D02*
X109394524Y-59777381D01*
X109061190Y-60158333D01*
X109204048Y-60158333D01*
X109299286Y-60205952D01*
X109346905Y-60253571D01*
X109394524Y-60348810D01*
X109394524Y-60586905D01*
X109346905Y-60682143D01*
X109299286Y-60729762D01*
X109204048Y-60777381D01*
X108918333Y-60777381D01*
X108823095Y-60729762D01*
X108775476Y-60682143D01*
X117856095Y-59777381D02*
X117856095Y-60586905D01*
X117903714Y-60682143D01*
X117951333Y-60729762D01*
X118046571Y-60777381D01*
X118237048Y-60777381D01*
X118332286Y-60729762D01*
X118379905Y-60682143D01*
X118427524Y-60586905D01*
X118427524Y-59777381D01*
X119332286Y-60110714D02*
X119332286Y-60777381D01*
X119094190Y-59729762D02*
X118856095Y-60444048D01*
X119475143Y-60444048D01*
X110998095Y-80541881D02*
X110998095Y-81351405D01*
X111045714Y-81446643D01*
X111093333Y-81494262D01*
X111188571Y-81541881D01*
X111379048Y-81541881D01*
X111474286Y-81494262D01*
X111521905Y-81446643D01*
X111569524Y-81351405D01*
X111569524Y-80541881D01*
X112521905Y-80541881D02*
X112045714Y-80541881D01*
X111998095Y-81018071D01*
X112045714Y-80970452D01*
X112140952Y-80922833D01*
X112379048Y-80922833D01*
X112474286Y-80970452D01*
X112521905Y-81018071D01*
X112569524Y-81113310D01*
X112569524Y-81351405D01*
X112521905Y-81446643D01*
X112474286Y-81494262D01*
X112379048Y-81541881D01*
X112140952Y-81541881D01*
X112045714Y-81494262D01*
X111998095Y-81446643D01*
X121388190Y-69945191D02*
X121864381Y-69945191D01*
X120864381Y-70278524D02*
X121388190Y-69945191D01*
X120864381Y-69611857D01*
X121864381Y-68754714D02*
X121864381Y-69326143D01*
X121864381Y-69040429D02*
X120864381Y-69040429D01*
X121007238Y-69135667D01*
X121102476Y-69230905D01*
X121150095Y-69326143D01*
X125134690Y-61753691D02*
X125610881Y-61753691D01*
X124610881Y-62087024D02*
X125134690Y-61753691D01*
X124610881Y-61420357D01*
X124706119Y-61134643D02*
X124658500Y-61087024D01*
X124610881Y-60991786D01*
X124610881Y-60753690D01*
X124658500Y-60658452D01*
X124706119Y-60610833D01*
X124801357Y-60563214D01*
X124896595Y-60563214D01*
X125039452Y-60610833D01*
X125610881Y-61182262D01*
X125610881Y-60563214D01*
X124023381Y-67825857D02*
X124023381Y-68302048D01*
X123023381Y-68302048D01*
X123499571Y-67492524D02*
X123499571Y-67159190D01*
X124023381Y-67016333D02*
X124023381Y-67492524D01*
X123023381Y-67492524D01*
X123023381Y-67016333D01*
X124023381Y-66587762D02*
X123023381Y-66587762D01*
X123023381Y-66349667D01*
X123071000Y-66206809D01*
X123166238Y-66111571D01*
X123261476Y-66063952D01*
X123451952Y-66016333D01*
X123594810Y-66016333D01*
X123785286Y-66063952D01*
X123880524Y-66111571D01*
X123975762Y-66206809D01*
X124023381Y-66349667D01*
X124023381Y-66587762D01*
X129039881Y-68492666D02*
X128563690Y-68826000D01*
X129039881Y-69064095D02*
X128039881Y-69064095D01*
X128039881Y-68683142D01*
X128087500Y-68587904D01*
X128135119Y-68540285D01*
X128230357Y-68492666D01*
X128373214Y-68492666D01*
X128468452Y-68540285D01*
X128516071Y-68587904D01*
X128563690Y-68683142D01*
X128563690Y-69064095D01*
X128373214Y-67635523D02*
X129039881Y-67635523D01*
X127992262Y-67873619D02*
X128706548Y-68111714D01*
X128706548Y-67492666D01*
X92722867Y-53614581D02*
X92389533Y-53138390D01*
X92151438Y-53614581D02*
X92151438Y-52614581D01*
X92532391Y-52614581D01*
X92627629Y-52662200D01*
X92675248Y-52709819D01*
X92722867Y-52805057D01*
X92722867Y-52947914D01*
X92675248Y-53043152D01*
X92627629Y-53090771D01*
X92532391Y-53138390D01*
X92151438Y-53138390D01*
X93151438Y-53090771D02*
X93484772Y-53090771D01*
X93627629Y-53614581D02*
X93151438Y-53614581D01*
X93151438Y-52614581D01*
X93627629Y-52614581D01*
X94389534Y-53090771D02*
X94056200Y-53090771D01*
X94056200Y-53614581D02*
X94056200Y-52614581D01*
X94532391Y-52614581D01*
X95056200Y-52614581D02*
X95056200Y-52852676D01*
X94818105Y-52757438D02*
X95056200Y-52852676D01*
X95294296Y-52757438D01*
X94913343Y-53043152D02*
X95056200Y-52852676D01*
X95199058Y-53043152D01*
X95818105Y-52614581D02*
X95818105Y-52852676D01*
X95580010Y-52757438D02*
X95818105Y-52852676D01*
X96056201Y-52757438D01*
X95675248Y-53043152D02*
X95818105Y-52852676D01*
X95960963Y-53043152D01*
X127190667Y-43759381D02*
X126857333Y-43283190D01*
X126619238Y-43759381D02*
X126619238Y-42759381D01*
X127000191Y-42759381D01*
X127095429Y-42807000D01*
X127143048Y-42854619D01*
X127190667Y-42949857D01*
X127190667Y-43092714D01*
X127143048Y-43187952D01*
X127095429Y-43235571D01*
X127000191Y-43283190D01*
X126619238Y-43283190D01*
X127619238Y-43235571D02*
X127952572Y-43235571D01*
X128095429Y-43759381D02*
X127619238Y-43759381D01*
X127619238Y-42759381D01*
X128095429Y-42759381D01*
X128857334Y-43235571D02*
X128524000Y-43235571D01*
X128524000Y-43759381D02*
X128524000Y-42759381D01*
X129000191Y-42759381D01*
X129524000Y-42759381D02*
X129524000Y-42997476D01*
X129285905Y-42902238D02*
X129524000Y-42997476D01*
X129762096Y-42902238D01*
X129381143Y-43187952D02*
X129524000Y-42997476D01*
X129666858Y-43187952D01*
X130285905Y-42759381D02*
X130285905Y-42997476D01*
X130047810Y-42902238D02*
X130285905Y-42997476D01*
X130524001Y-42902238D01*
X130143048Y-43187952D02*
X130285905Y-42997476D01*
X130428763Y-43187952D01*
X92824467Y-83561181D02*
X92491133Y-83084990D01*
X92253038Y-83561181D02*
X92253038Y-82561181D01*
X92633991Y-82561181D01*
X92729229Y-82608800D01*
X92776848Y-82656419D01*
X92824467Y-82751657D01*
X92824467Y-82894514D01*
X92776848Y-82989752D01*
X92729229Y-83037371D01*
X92633991Y-83084990D01*
X92253038Y-83084990D01*
X93253038Y-83037371D02*
X93586372Y-83037371D01*
X93729229Y-83561181D02*
X93253038Y-83561181D01*
X93253038Y-82561181D01*
X93729229Y-82561181D01*
X94491134Y-83037371D02*
X94157800Y-83037371D01*
X94157800Y-83561181D02*
X94157800Y-82561181D01*
X94633991Y-82561181D01*
X95157800Y-82561181D02*
X95157800Y-82799276D01*
X94919705Y-82704038D02*
X95157800Y-82799276D01*
X95395896Y-82704038D01*
X95014943Y-82989752D02*
X95157800Y-82799276D01*
X95300658Y-82989752D01*
X95919705Y-82561181D02*
X95919705Y-82799276D01*
X95681610Y-82704038D02*
X95919705Y-82799276D01*
X96157801Y-82704038D01*
X95776848Y-82989752D02*
X95919705Y-82799276D01*
X96062563Y-82989752D01*
X116675067Y-83561181D02*
X116341733Y-83084990D01*
X116103638Y-83561181D02*
X116103638Y-82561181D01*
X116484591Y-82561181D01*
X116579829Y-82608800D01*
X116627448Y-82656419D01*
X116675067Y-82751657D01*
X116675067Y-82894514D01*
X116627448Y-82989752D01*
X116579829Y-83037371D01*
X116484591Y-83084990D01*
X116103638Y-83084990D01*
X117103638Y-83037371D02*
X117436972Y-83037371D01*
X117579829Y-83561181D02*
X117103638Y-83561181D01*
X117103638Y-82561181D01*
X117579829Y-82561181D01*
X118341734Y-83037371D02*
X118008400Y-83037371D01*
X118008400Y-83561181D02*
X118008400Y-82561181D01*
X118484591Y-82561181D01*
X119008400Y-82561181D02*
X119008400Y-82799276D01*
X118770305Y-82704038D02*
X119008400Y-82799276D01*
X119246496Y-82704038D01*
X118865543Y-82989752D02*
X119008400Y-82799276D01*
X119151258Y-82989752D01*
X119770305Y-82561181D02*
X119770305Y-82799276D01*
X119532210Y-82704038D02*
X119770305Y-82799276D01*
X120008401Y-82704038D01*
X119627448Y-82989752D02*
X119770305Y-82799276D01*
X119913163Y-82989752D01*
M02*
