M48
;DRILL file {KiCad 4.0.5} date 05/13/17 18:28:47
;FORMAT={2:4/ absolute / inch / suppress leading zeros}
FMAT,2
INCH,TZ
T1C0.013
T2C0.026
T3C0.039
T4C0.087
%
G90
G05
M72
T1
X40125Y-29375
X40150Y-27875
X40450Y-24000
X40600Y-27425
X40650Y-26975
X40875Y-27925
X41200Y-30100
X41925Y-32950
X41950Y-29250
X42200Y-23525
X42225Y-24025
X42450Y-26250
X42450Y-32900
X42475Y-27025
X42475Y-32100
X42500Y-27400
X42525Y-26650
X42525Y-28200
X42525Y-32550
X42700Y-22850
X42725Y-23375
X42925Y-29600
X42950Y-28925
X43450Y-25150
X43475Y-30225
X43600Y-27850
X43625Y-27500
X43650Y-26550
X43675Y-31800
X43725Y-22650
X43825Y-28600
X43875Y-24875
X44000Y-26275
X44150Y-30725
X44200Y-28600
X44375Y-33275
X44575Y-28575
X45150Y-31775
X45325Y-33350
X45525Y-25250
X45525Y-28575
X45650Y-22625
X45750Y-33375
X45875Y-28575
X46075Y-23500
X46150Y-23975
X46250Y-32850
X46275Y-31800
X47100Y-23025
X47225Y-26650
X47350Y-30200
X47475Y-25250
X47475Y-31425
X47650Y-32000
X47975Y-31550
X48425Y-30400
X48550Y-31200
X49100Y-25800
X49650Y-24850
X49700Y-29600
X50050Y-26350
X50450Y-31950
X50550Y-28800
T2
X48750Y-32150
X48750Y-32650
X48750Y-33150
X48750Y-33650
X48750Y-34150
T3
X50887Y-24850
X50887Y-28150
X50887Y-31500
T4
X40680Y-22230
X40720Y-34020
X50110Y-34020
X50120Y-22260
T0
M30
