G04 #@! TF.FileFunction,Legend,Bot*
%FSLAX46Y46*%
G04 Gerber Fmt 4.6, Leading zero omitted, Abs format (unit mm)*
G04 Created by KiCad (PCBNEW 4.0.5) date 05/13/17 18:28:42*
%MOMM*%
%LPD*%
G01*
G04 APERTURE LIST*
%ADD10C,0.100000*%
%ADD11C,0.120000*%
%ADD12C,0.150000*%
G04 APERTURE END LIST*
D10*
X123611079Y-69278500D02*
G75*
G03X123611079Y-69278500I-9501579J0D01*
G01*
D11*
X100516000Y-60968000D02*
X100896000Y-60468000D01*
X100896000Y-60468000D02*
X101216000Y-60468000D01*
X100516000Y-60968000D02*
X100516000Y-61968000D01*
X100516000Y-61968000D02*
X100896000Y-62468000D01*
X100896000Y-62468000D02*
X101216000Y-62468000D01*
X104016000Y-59818000D02*
X104016000Y-63118000D01*
X103716000Y-59818000D02*
X104016000Y-59818000D01*
X104016000Y-63118000D02*
X103716000Y-63118000D01*
X101516000Y-59818000D02*
X101216000Y-59818000D01*
X101216000Y-59818000D02*
X101216000Y-63118000D01*
X101216000Y-63118000D02*
X101516000Y-63118000D01*
D12*
X102038071Y-68492786D02*
X102085690Y-68635643D01*
X102133310Y-68683262D01*
X102228548Y-68730881D01*
X102371405Y-68730881D01*
X102466643Y-68683262D01*
X102514262Y-68635643D01*
X102561881Y-68540405D01*
X102561881Y-68159452D01*
X101561881Y-68159452D01*
X101561881Y-68492786D01*
X101609500Y-68588024D01*
X101657119Y-68635643D01*
X101752357Y-68683262D01*
X101847595Y-68683262D01*
X101942833Y-68635643D01*
X101990452Y-68588024D01*
X102038071Y-68492786D01*
X102038071Y-68159452D01*
X101561881Y-69016595D02*
X101561881Y-69588024D01*
X102561881Y-69302309D02*
X101561881Y-69302309D01*
X102561881Y-70445167D02*
X102561881Y-69873738D01*
X102561881Y-70159452D02*
X101561881Y-70159452D01*
X101704738Y-70064214D01*
X101799976Y-69968976D01*
X101847595Y-69873738D01*
X110752357Y-66897547D02*
X110752357Y-68421357D01*
X110180929Y-69183261D02*
X111514262Y-69659452D01*
X110180929Y-70135642D01*
X111419024Y-71659452D02*
X111514262Y-71468976D01*
X111514262Y-71088024D01*
X111419024Y-70897547D01*
X111228548Y-70802309D01*
X110466643Y-70802309D01*
X110276167Y-70897547D01*
X110180929Y-71088024D01*
X110180929Y-71468976D01*
X110276167Y-71659452D01*
X110466643Y-71754690D01*
X110657119Y-71754690D01*
X110847595Y-70802309D01*
X115716643Y-80207072D02*
X115716643Y-81349929D01*
X116288071Y-80778500D02*
X115145214Y-80778500D01*
X115516643Y-57307072D02*
X115516643Y-58449929D01*
X116088071Y-57878500D02*
X114945214Y-57878500D01*
X102893762Y-60007667D02*
X102941381Y-60150524D01*
X102941381Y-60388620D01*
X102893762Y-60483858D01*
X102846143Y-60531477D01*
X102750905Y-60579096D01*
X102655667Y-60579096D01*
X102560429Y-60531477D01*
X102512810Y-60483858D01*
X102465190Y-60388620D01*
X102417571Y-60198143D01*
X102369952Y-60102905D01*
X102322333Y-60055286D01*
X102227095Y-60007667D01*
X102131857Y-60007667D01*
X102036619Y-60055286D01*
X101989000Y-60102905D01*
X101941381Y-60198143D01*
X101941381Y-60436239D01*
X101989000Y-60579096D01*
X101941381Y-60912429D02*
X102941381Y-61150524D01*
X102227095Y-61341001D01*
X102941381Y-61531477D01*
X101941381Y-61769572D01*
X102941381Y-62674334D02*
X102941381Y-62102905D01*
X102941381Y-62388619D02*
X101941381Y-62388619D01*
X102084238Y-62293381D01*
X102179476Y-62198143D01*
X102227095Y-62102905D01*
X123058762Y-78676667D02*
X123106381Y-78819524D01*
X123106381Y-79057620D01*
X123058762Y-79152858D01*
X123011143Y-79200477D01*
X122915905Y-79248096D01*
X122820667Y-79248096D01*
X122725429Y-79200477D01*
X122677810Y-79152858D01*
X122630190Y-79057620D01*
X122582571Y-78867143D01*
X122534952Y-78771905D01*
X122487333Y-78724286D01*
X122392095Y-78676667D01*
X122296857Y-78676667D01*
X122201619Y-78724286D01*
X122154000Y-78771905D01*
X122106381Y-78867143D01*
X122106381Y-79105239D01*
X122154000Y-79248096D01*
X122106381Y-79581429D02*
X123106381Y-79819524D01*
X122392095Y-80010001D01*
X123106381Y-80200477D01*
X122106381Y-80438572D01*
X122439714Y-81248096D02*
X123106381Y-81248096D01*
X122058762Y-81010000D02*
X122773048Y-80771905D01*
X122773048Y-81390953D01*
X123058762Y-70167667D02*
X123106381Y-70310524D01*
X123106381Y-70548620D01*
X123058762Y-70643858D01*
X123011143Y-70691477D01*
X122915905Y-70739096D01*
X122820667Y-70739096D01*
X122725429Y-70691477D01*
X122677810Y-70643858D01*
X122630190Y-70548620D01*
X122582571Y-70358143D01*
X122534952Y-70262905D01*
X122487333Y-70215286D01*
X122392095Y-70167667D01*
X122296857Y-70167667D01*
X122201619Y-70215286D01*
X122154000Y-70262905D01*
X122106381Y-70358143D01*
X122106381Y-70596239D01*
X122154000Y-70739096D01*
X122106381Y-71072429D02*
X123106381Y-71310524D01*
X122392095Y-71501001D01*
X123106381Y-71691477D01*
X122106381Y-71929572D01*
X122106381Y-72215286D02*
X122106381Y-72834334D01*
X122487333Y-72501000D01*
X122487333Y-72643858D01*
X122534952Y-72739096D01*
X122582571Y-72786715D01*
X122677810Y-72834334D01*
X122915905Y-72834334D01*
X123011143Y-72786715D01*
X123058762Y-72739096D01*
X123106381Y-72643858D01*
X123106381Y-72358143D01*
X123058762Y-72262905D01*
X123011143Y-72215286D01*
X123058762Y-61785667D02*
X123106381Y-61928524D01*
X123106381Y-62166620D01*
X123058762Y-62261858D01*
X123011143Y-62309477D01*
X122915905Y-62357096D01*
X122820667Y-62357096D01*
X122725429Y-62309477D01*
X122677810Y-62261858D01*
X122630190Y-62166620D01*
X122582571Y-61976143D01*
X122534952Y-61880905D01*
X122487333Y-61833286D01*
X122392095Y-61785667D01*
X122296857Y-61785667D01*
X122201619Y-61833286D01*
X122154000Y-61880905D01*
X122106381Y-61976143D01*
X122106381Y-62214239D01*
X122154000Y-62357096D01*
X122106381Y-62690429D02*
X123106381Y-62928524D01*
X122392095Y-63119001D01*
X123106381Y-63309477D01*
X122106381Y-63547572D01*
X122201619Y-63880905D02*
X122154000Y-63928524D01*
X122106381Y-64023762D01*
X122106381Y-64261858D01*
X122154000Y-64357096D01*
X122201619Y-64404715D01*
X122296857Y-64452334D01*
X122392095Y-64452334D01*
X122534952Y-64404715D01*
X123106381Y-63833286D01*
X123106381Y-64452334D01*
M02*
